<mxfile host="app.diagrams.net" modified="2022-12-02T07:20:33.948Z" agent="5.0 (Windows NT 10.0; Win64; x64) AppleWebKit/537.36 (KHTML, like Gecko) Chrome/108.0.0.0 Safari/537.36" etag="FYNmXaJ3FCQMnuX3PgF_" version="20.6.0" type="github">
  <diagram id="-lC1rfxS8L96Ydqc-us9" name="Page-1">
    <mxGraphModel dx="1597" dy="955" grid="1" gridSize="10" guides="1" tooltips="1" connect="1" arrows="1" fold="1" page="1" pageScale="1" pageWidth="1700" pageHeight="1100" math="0" shadow="0">
      <root>
        <mxCell id="0" />
        <mxCell id="1" parent="0" />
        <mxCell id="TG1zTrysk28nqlkXCDqp-10" value="" style="rounded=1;whiteSpace=wrap;html=1;fontSize=18;" parent="1" vertex="1">
          <mxGeometry x="562.5699999999999" y="540" width="580" height="180" as="geometry" />
        </mxCell>
        <mxCell id="TG1zTrysk28nqlkXCDqp-1" value="" style="shape=image;verticalLabelPosition=bottom;labelBackgroundColor=default;verticalAlign=top;aspect=fixed;imageAspect=0;image=data:image/png,iVBORw0KGgoAAAANSUhEUgAAAXcAAAFpCAYAAABnHGgVAAAAAXNSR0IArs4c6QAAAARnQU1BAACxjwv8YQUAAAAJcEhZcwAAEnQAABJ0Ad5mH3gAACTlSURBVHhe7d0HeFTF+sfxCVKkSBER6SAggiAKol7EgqIgIhIs14Kg+HjtChcVQVHsKNgR8dJBwWtFYqH+UeCKFJEmTRBQWlA6BCnJ+e978kKy2bObbLLZZGe/n+eZhzOzZ0+SDfnt2TlzZhIcHwMAsEoR/RcAYBHCHQAsRLgDgIUIdwCwEOEOABYi3AHAQoQ7AFiIcAcACxHuAGAhwh0ALES4A4CFCHcAsBDhDgAWItwBwEKEOwBYiHAHAAsR7gBgIcIdACxEuAOAhQh3ALAQ4Q4AFiLcAcBChDsAWIhwBwALEe4AYCHCHQAsRLgDgIUIdwCwEOEOABYi3AHAQoQ7AFiIcAcACxHuAGAhwh0ALES4A4CFCHcAsBDhDgAWItwBwEKEOwBYiHAHAAsR7gBgIcIdACxEuAOAhQh3ALAQ4Q4AFiLcAcBChDsAWIhwBwALEe4AYCHCHQAsRLgDgIUIdwCwEOEOABZKcHx0G3Hk0KFDZsOGDW45cOCAkf8GJUqUMNWqVTN16tQx5cuX1z0BxCLCPY4sXbrUfPLJJ2bSpElm2bJlbqAHU7lyZXPVVVeZ9u3bm44dO5pSpUrpI4VbQkKCbmUI9XOGuz8QKwj3OLBy5Urz5JNPmi+++EJbwiNB37t3b3PvvfeakiVLamvhRLgD6Qh3yw0bNsw8+OCD5vDhw9qSew0bNnTP/M866yxtKXwIdyAd4W6xQYMGmccee0xrkVGmTBkzffp0c8EFF2hL4UK4A+kId0tNnjzZ7S/3+vXWqlXLXHLJJeaiiy4yzZo1M2XLljVFixY1f//9t0lOTjYzZswwU6dONT/99JPn80877TSzcOFC9+JrYUO4A+kIdwvJSJi6deuazZs3a0u66tWrm9dff91cf/31pkiR7EfBbtq0ye1n//rrr7UlQ4cOHUxSUpLWCg/CHUjHOHcLffDBBwHB3qBBA3e0zI033pijYBfyZiAB3qtXL23J8NVXX5mff/5ZawAKG8LdQp999pluZXjzzTdNhQoVtJZzcmY7cOBAc/bZZ2tLhvfff1+3ABQ2hLtlpEth/vz5Wkt33nnnmXbt2mktfBLwffr00VqG2bNn6xaAwoZwt0xKSorZsWOH1tLVrFlTt3JPunOyHmfFihVm9+7dWgNQmHBB1TL79+83J510ktbSyagZr4ui4bruuuvcu1uPkb57uUHqjDPO0JacSU1NNd9++635/vvvzZIlS8yqVavcKRBOOOEEc8opp7jDLGUkj9whG+4bU0FdUF2zZo35/PPPzeLFi91rG3/99Zf7c8qdvU2aNHF/Hhmh1KpVK8+vGYxcO8n8SUyO17ZtW3c7LS3NjB071owePdr88ssvpnjx4qZ58+bu76lTp06mYsWK7n6IUxLusIfvD94pV66cpNPx4gsEJzk5WffIPV9wObNmzXJ8ge74wsvxhZc+kjNHjhxxXn/9dadWrVp+31+w4nvzcHyfGBzfJwQ9Qva8jhNKuPtn9cMPPzi+sPU8jlc588wznQ8++CDHr92nn37q93x57YTvTdxJTEz0eyxzKVu2rDNz5kx3X8Qnwt1Cl112WcAf+/333+8Gf0HZtGmT4ztzDfi+clJ8Z/TOyJEj9UiheT0/lHD3P0bC+aWXXnK/N69jZFfkDcH3aUWPFlywcL/99tv92r3Khg0b3H0Rnwh3Cw0dOtTzj71z587O+vXrda/oka9ZpUoVz+9Jysknn+zUq1fPqVOnjlOiRAnPfaS8/fbbesTgvJ4XSrj7C3mT7Natm+dzpcjPICFcv359p2LFip77SGnVqpWze/duPao3r3D/6KOP/Nq8yuWXX65HQLwi3C0kZ4Q1atTw/KOXro7WrVs7Q4YMcbZt26bPyD/79u1zzjrrrIDvo1ixYs7NN9/sfPfdd36fKPbu3euMGjUq6Fn+8OHDdU9vXs8JJdz9xYsvvuj5vLPPPtt57733nD179uie6W8Ec+bMce655x63eyzrcy666CK3uyqYrOFeuXJlp3bt2n5t8rtu3ry5U7NmzeNtY8aM0SMgXhHulpK+8ey6DCToL7jgAufRRx91vvzyS7cfPdJ69uwZ8HUloH7++Wfdw5uE4ogRI5zixYv7PbdMmTIhuxsy73ushBLu/kuXLnVft6zPef7557Pt9lq9erX7BpD1uQMGDNA9AmUN98ylWrVqzvjx449/XflXrk/8+9//dt9UEd8Id4tNnDjRKV26tGcwBCuNGjVyzzLHjRuX54uwv/32m3uGnvn4cqFv2bJlukf2Jk+e7CQkJPgdQ/qbg8m837ESSrj7t2/fPmD/fv366aPZ27Vrl3POOef4PV/esLZv3657+AsW7tKVtWXLFt0LCES4W+6XX35xmjVr5hkQ2ZVjXTjvvvturoL+7rvvDjimdAeFq2PHjn7HkLAPdu0g837HSijh7D9v3ryAfeW1ze6MPaukpKSA4wR7gwgW7oMHD9Y9AG+EexyQ8Jk9e7Zz0003OUWLFvUMi+yKnIF36dIlx2eLhw8fds8uMx+jfPny7hC+cE2fPt3vOFJkOKGXrPtJCSWc/Xv16hWwb276tmWkTd26df2Oc+mll+qj/rzCvWTJks7Bgwd1D8Abd6jGAblpRm6e+e9//2s2btxonnnmGXPuueeGdTPNkSNH3AnJGjVqZMaNGycJqI94mzVrltm5c6fW0t11112mdOnSWsu5yy+/3J34LDOZjjia5OeVm5Qyq1SpkvnnP/+ptZzzfSIy99xzj9bSLVq0yL0pKSdkmuYTTzxRa4A3wj3OVK1a1fTv398Nk127drl3rvbt29f4zhxztISeTDfQtWtX88ADD4QMo//973+6lSG389vIm1DWicuiHe7btm0z69ev11q61q1bu4uK50bTpk11K92+ffvM2rVrtRZaixYtdAsIjukHcJwsxTdnzhx3ioEvv/zSbNiwQR/xJuuqDhgwQGv+br/9dvdMPzOZXVIW+sgNuc1+2rRpWktfEWrPnj0B0xd7fRoJ9V88p/vLJxF5A8xMpnW45ZZbtBae33//3V3XNrMPP/zQ3HrrrVpLJzN83nDDDVpLJ9MNdOvWTWtAEBLuQFbST79kyRLHF0ABfeeZi4xT9yJDLL32j2TZuHGjfrUMXvuFktP9ZXy9176RLE899ZR+tQxefe6ff/65PgoER7cMPB3rCnnhhRfcfvpga7HKWaSXrP3t+eHgwYO6lf+i8fPIMoc5IROEAdkh3JEt6QJ59dVXzcsvv6wtGeQioyzrl5XMiJjfvL5ufjl69Khu5Z+c/jxZu6IAL/S5W0Qu+C1btsxs3779eOnRo4epXbu27pE3EnCNGzc2q1ev1pZ006dPN1dccYXW0snoFpkG9xhZBUpG6USS9HefeuqpWkuXX33ucr3g8ccf11q6++67L2AUT17I1MAyMigzrz73b775xlx99dVaA4KQcIcd+vfvf7xf9liRaQUiSW5tz/o1Pv74Y300wz/+8Q+/feQuzGjI/DWPlVByur/MSpl1vwkTJuij+cerz90X7vooEByf7yxSq1Yt3cogC2JEUo0aNXQrg4yyySrrAh6yiEjWFaJiideCJNmNJgIKEuFukZYtW+pWhqSkpIj2f8t47KzKlSunWxm8wtBr4e5YYdvPA/sR7hapX7++e9dkZr/++qs7fjoSfJ/0zOTJk7WWQZZ2y0qWlMsq2Mia7MjXlTHmF198sTt+vl+/fmbkyJFue7TI8n9nnnmm1tItXLjQXd4uNwYPHuzeJZyYmGh69uxp3nzzTbNu3Tp9FIgA6ZuBPfr06RPQR+sLJne62bzy6v+VBTa8yPwpVatWDdg/N9/H1KlTA44j4+i9ZN1PSijh7P/0008H7PvYY4/pozl36NAhdyGPrMeS6YSzos8ducWZu2UeeuihgHHQsljzlVdeaX7++WdtCZ+MfOnVq5fWMsjX8yLD9W677TatZZD9wxlWKGPZ77//fq1luPHGG3UreuTu0ayja4YMGeIuiB0OGVIqn6gyk1E3MhIJiBgNeVgk2EpBsnjHI4884vz555+6Z/ZklSCZ8vekk04KON5pp50WcpbHHTt2eN7deueddzq+gNe9gpO7ZGXt16zPlyX5UlJSdC9/WfeVEkq4+3tNYywrIPnCWvcIbe7cuQFz3EsJdjbOmTtyi3C3kHSJtGnTJiAUjhWZp126NWQOcZkKWBaQkCl6JUwlNGWu9NGjR7vrhFavXt3zGDJ1sKz2lB1Zds7r+e3atXODTr6mF3ljkCmKvZ4bbMoD4bV/KOHuL4tqVKhQIeA5srqUDJcMtui1/JyyfKDXUnuhFh8h3JFb3MRkKbldvm3btu5Fv0iTronhw4eb7t27a0tw8t/rjjvucCf+8iLT18pF0ipVqrjdScnJye5MlTJJmNcdmzJV7tChQ7UWKL9uYspsxowZ7k1EMg1yVnKzlvy8crHU92nH7Vb64YcfzMSJE82mTZt0rwxyAXzlypWmYsWK2uKPm5iQaxLusJOso+kLhuNnfJEo5cqVcyZNmqRfIWeka6dr166exwun3HbbbdkuUuH1vFDC3f8YeQ3kxiyv5+e0yMLWixcv1iN648wducUFVYvJnDCffPKJexbsNVwxHHKBVBbbkKF/1157rbbmTNGiRd1hkOPHj3fPbMMlC3y888477iIhhWWRCnkNlixZ4g7PzA0ZArlgwYKAed2BSKFbJk6kpaWZ2bNnuzc1Sck870sosvJS586d3ZEvWcd554Z0F8k878OGDTPLly/X1kDyZiI3ZXXo0MEdpeJ1Z6yXaHTLZCavq7x5SjeVzIHv1VVzjPwM8qYgr2fWuXiCmTJlSsCIJHntss4tD2RFuMcpCVmZaExuoZeFI2S6WRmiWKxYMXcyrnr16rk3RUlfeH6Q/3YysZl8ElixYoXZu3ev2y5n6bKgR5s2bYL2QxdW0r++atUq901ry5YtbtDL6lbyCUreqGSoo9ebCZAfCHcAsBB97gBgIcIdACxEuAOAhQh3ALAQ4Q4AFiLcAcBChDsAWIhwBwALEe4AYCHCHQAsRLgDgIUIdwCwEOEOABYi3AHAQoQ7AFiIcAcACxHuAGAhwh0ALES4A4CFCHcAsBDhDgAWItwBwEKEOwBYiHAHAAsR7gBgIcIdACxEuAOAhQh3ALAQ4Q4AFiLcAcBChDsAWIhwBwALEe4AYCHCHQAsRLgDgIUIdwCwEOEOABYi3AHAQoQ7AFiIcAcACxHuAGAhwh0ALES4A4CFEhwf3UY+k5f64MGDbjl69KgpUaKEKVmypPsvAEQS4Z5PDh06ZJYsWWIWLlzolgULFpiVK1ea1NRU3SND2bJlzbnnnmtatGhhzjvvPLfUrVtXHwWA8BHuESQv5bfffmveffddM23aNHPkyBF9JHynnHKK6dKli3nggQdMvXr1tBUAcoZwj4Bdu3aZkSNHmvfee8+sW7dOWyMjISHBtG3b1g359u3bmyJFuEwCIHuEex7Imfnzzz9vXnvtNZOSkqKt+UfO4IcMGWKuvPJKbQEAb4R7Li1evNh069bNLF26VFui55577jGDBg0yZcqU0RZE2tq1a83UqVPNX3/9pS3IL+XLlzeXXnqpadq0qbYgIiTckXO+s3Xn2WefdYoVKyZvigVW6tSp48ycOVO/K0TSW2+95fmaU/K3DBgwQH8DiATO3MOwe/dut9977ty52pJztevUcUfBSNdKqVKlTNGiRd0RNXv27HFH1fz0009mr287HNIfL91CTz75pLYgr+QTWbNmzdyL44g+GVUmfyeIAAl3ZG/nzp1O8+bN/c40QpVy5cs7j/To4UyeMsX5a8cOJ813jFAlNS3NWb1mjfPBhx86bdu1c3zJ7Xlcr9K/f3/fERAJr732mudrTIlOefHFF/U3gbwi3HNAgt13Nuf5nzFradykifPe0KHOvv37PUM8p2XNr786PXr2dN8kvL5O1vLMM8/4noW86tOnj+frS4lOefjhh/U3gbxiXF02fMFu2rRpYxYtWqQt3nwhbEaNHu1eYJULnqVLl9ZHcke6b15//XWzYcMGc8edd2prcM8++6zxBbzWAMQ7wj0E35ufufnmm7MN9rbt2pnly5e7o2cirVy5cu4Y+qSvvjJVqlbVVm/PPfecGTt2rNYAxDMuqIYgY8rl5qGgEhLcMe49e/bUhvwlN0vdcMMNZub//Z+2BJJhZcuWLTPVq1fXFoSjb9++5uWXX9aavy1bt5oTTzxRa8iLkytU0C1/Dz/8sHnrrbe0hjyRcEegtWvXOqVLlw7oEzxeEhKcd4cM8ewvz89yICXFufyKK7y/Jy1t27b17YncCNXnnnLwoOfvhBJ+SShSxPM1ps89cuiW8ZCWlmbuvPNOc+DAAW3JwnfGLlMN3HfffdoQPTKLZFJSkmkT4i7VKVOmmPfff19rAOIR4e5Bgnv27NlaCyR923LRtKBIwE+aNMmcHeKOvkcffdRs2bJFawDiDeGehZy1y639wZx/wQXG99FdawVH+n7HjBljihYrpi3+9u/f714zABCfCPcsvvrqK3f4oZcTfWfMEqgnnHCCthQsmYvj6aef1lqgYcOGuXfBAog/hHsW77zzjm4Fklv9GzRooLXCQT5FnNusmdb8bd++3Xz88cdaAxBPCPdMZKWk6dOna81fhZNPNvfff7/WCg/5FPHEE09oLVCoNysA9iLcM/nPf/6jW4Huuusu90JmYZSYmGiqVqumNX8yEVN2N2EBsA/hnsn333+vW/4SihQplGftx8gMk/fee6/WAs2aNUu3AMQLwl3JhUeZQsCLLHNXu3ZtrRVO//rXv9zx915kgW4A8YVwVzKPd7AFrVu1aqVbhdepp55qzjjjDK35k64ZAPGFcFehzm5btGihW4VbsEUOfv31V7N3716tAYgHhLsKFe6xsjJMsDchx3HclZ4AxA/CXW3cuFG3/NU5/XRTIcgMdoVNqDehYD8fADsR7urgwYO65U/6smNFqO812M8HwE6EuwoWfoV1bLuXUN8r4Q7EF8JdJQQZRij91bEi1Pca7OcDYCfCXQU7642lM95Q32ssfQIBkHeEuwoWfps3b9atwi/U/O2EOxBfCHdVt25d3fK3edMmk5ycrLXCLdTNSvXq1dMtAPGAcFehblSKlTs8g32fMnPkueeeqzUA8YBwV6HCPVbmZgn2fTZq1MiUKlVKawDiAeGuGjdu7C5d52XmzJm6VXjJTUob1q/Xmr9YucMWQOQQ7kqmzT3nnHO05m/2rFnml19+0VrhJIt6BxMrc+MAiBzCPZMrrrhCtwINHjxYtwqfv//+2wwfPlxrgVq3bq1bAOIF4Z6JzIkebPHrcePGmd27d2utcBk/frzZuWOH1vxdfvnl5swzz9QagHhBuGdSs2ZN07FjR635SzlwwLzyyitaKzxSUlLMyy+/rLVADz30kG4BiCeEexahwnDgwIFm3rx5WiscZHHsdWvXas1frVq1zLXXXqs1APGEcM9C+qdl5IyXtNRU061bt0IzJYGM4gl1LUDWfQ3WzQTAboS7h759++pWoDWrV5tevXppreD89ddf5s4775TZwrTFn0z/e/fdd2sNQLwh3D3ccsstJjExUWuBhr73ntsdUlAk2GVkz+8hFuAYOnRozCwyAiDyCPcgJBwrVaqktUCvvvKK6d27t9ai588//3RHwCxbulRbAnXp0iXkmxMA+xHuQUi3Rqgbg8TAV191L8AePnxYW/LXunXr3GBfvmyZtgSqVq2aeeedd7QGIF4R7iFcf/317llwKO8OHmyaN2+erwtQyyIcb7/9tjn77LPNL8uXa2sgWZBjxIgRpnz58toCIF4R7tmQOz/bt2+vNW8SuBdeeKHp16+fe7doJK1du9YdwdPjkUfMwZQUbQ1UpEgRN9jbtm2rLQDiGeGejRIlSpjPP//cXHPNNdriLfXoUfPiCy+43SKPP/64WR9kEq+ckDP1qVOnujdUNWjQwMz6/nt9xNuxYHdHzwCAD+GeA8cCvkOHDtoS3K6dO82ggQPdxTHkBqIhQ4aY+fPnm0OHDuke3uRC6bfffmuee+45d7qAdr4z8K+SkoyTlqZ7eJNgHzlypLnjjju0BQCMSfCdJcbOCtAFTC6c3n777ebjjz/WlpwrWqyYe3NU/fr13SXvivnq0oWzd+9es3jxYvPH77/rnjknxxk2bJi57bbbtAV5Jfc4BJvOIeXgwaDTQiM8cnOd14nLww8/bN566y2tIS8I91z44IMP3P+Eu3bt0pboa9mypRk1apQ544wztAWRQLhHB+Ge/+iWyQUZQSPzu+ekmybSJFxkjpvZs2cT7ACCItxzqUqVKiYpKcmMHj3anaArGq688kqzaNEi8+ijj7p97QAQDAmRRzKR2G+//WYmTpzohq+MNY+kk046yTz44INmxYoV7giahg0b6iMAEBzhHgFyFn3ddde54bty5Uq337BOnTr6aPiKFy9uLrjgAnfGx82bN7t3nBLqAMLBBdV8tHPnTrNw4UK3LFiwwO2n379/vztK5siRI27/uRSZw6ZZs2buWqeymHWTJk3cgEf0cUE1Origmv8IdyATwj06CPf8R7cMAFiIcAcACxHuAGAhwh0ALBRXF1Rl8i6ZxGvVqlXuSBZZ6JrrybFJFlORpQZlkrVI4oJqdHBBNf9ZH+6bNm1yJ9eaOXNmjmZnROyQgJD59iM5IybhHh2Ee/6ztltm2bJlpmvXrub00093p9GVuVgIdrukpqaa7t27m23btmkLgGOsC3fparnvvvvcJenGjRvn3iwEe8kHz2nTpmkNwDFWhfuSJUvc9UyHDh2qLYgH27dv1y0Ax1gT7pMmTXLnY5G5XQAg3lkR7jNmzDA33XQTfeoAoGJ+tMzcuXPdqXYPHDigLcH9o2VLd9+LL77YHUJXtmxZfQSFncyO2SjIzJiDBg0yvXr10lreMFomOhgtEwUS7rFq3759To0aNeTNKWRJ7NzZmb9ggZPmew4lNssfmzZ5/m6l+MLdt0dk9OnTx/NrSPGFu+f3Rgm/JBQp4vka+8Ld9ygiIaa7ZZ588knzxx9/aC1Q+QoVzCeffmo+++wzdypdAIgXMRvu8+bNcxezCKZ6jRrmp59+Mtdff722AED8iNlwf/bZZ02aR5+dOLVyZfcia15WQwKAWBaT4S5TCkyZMkVrgUaOHGnq16+vNQCIPzEZ7qNGjQp61n7TP/9p2rdvrzUAiE8xGe7jx4/XrUD9+/fXLQCIXzEX7ikpKWbNmjVa89fyoosiPgUsAMSimAv3FStWBO2SSUxM1C0AiG8xF+7Lly/XrUBNmjTRLQCIbzEX7lu3btWtQA2D3J6O7O3Zs8eMHTvWdOnSxbRs2dJUq1bNFCtWzJ2ioUKFCgVealSvrt8pgJyIuXB3QkyFU7JkSd1CTi1evNh06tTJXbbujm7dzPgPPzQ/zp1rtm7ZYlKPHjX79+0ze3bvLvACIDwxF+6hhAp++EtOTnZXMZL57yd9+aU5cviwPgLABlaFO3Jm0aJFplmzZmb0qFGeM/PFGmb3BAIR7nFGFjW55JJL3G4XW8gUzgD8Ee5xZP78+e6iJik5mPs+Vrz00kvc2wB4iLnFOuSPWab69ZK8fbupVKmS1pCZ9LFL//qWzZu1JbiaNWuaxo0bm+rVq5vU1FS3FDZVqlQxV199dcTP2lmsIzpYrCMKJNxjyYsvvnh8Yv+sxRfungsDUBznuk6dPF+zzOXmm292fGf3vr3jF4t1RKewWEf+o1smDkh3zJcTJ2ot0CmnnGK+++47M2HCBNOiRQttBRDLCPc4EKwbS1SuXNn8+OOP5tJLL9UWADYg3C0nC0vPmD5da/6k3/PTTz81devW1RYAtiDcLffNN9/oVqCuXbuaVq1aaQ2ATQh3y02ePFm3AvXu3Vu3ANiGoZCWa9CggfnVY/57WYYw2Lz48SzUUMhBr73GUMgIefCBB3TLH0MhI8gdMxNDGAoZXildpozna9WlSxffo8gq1FBISv4XhkJGDt0yljsQ5G5UGf4IwF6Eu+2YKTMsCQkJuoWCwOsfOYQ7kIlMu4CCwzxBkUO4A5m0bduWLqsCIq97hw4dtIa8ItyBTE4++WQza9Ys07RpU7oIokReZ1lfYMqUKe5kdYgMhkJarkiQgOrRo4d54403tAYvO3bsMLt27dIa8ouskVuxYkWtIVIId8sR7kB8olsGACxEuAOAhQh3ALAQ4Q4AFiLcAcBChDsAWIhwBwALEe4AYCHCHQAsFHfhfujQIdOrVy9TrVo1c/rpp5uHHnrIHD58WB8FADvE3fQDd9xxhxk7ZozW0iV27mw+++wzrdklv6cf+Pvvv83s2bPNxo0btQX5pVSpUqZly5amdu3a2hK+5ORk891335l9+/ZpC/JL1apV3QXoy5Ytqy1RJuEeS/KyzN7mLVs8n2cSEpxtycmez4n14vnz+oov3H2P5s38+fOdcuXKeR6fkn/lqaee0t9AeJ5//nknwfd/3euYlPwp8vcxZ84c/Q1EV1x1y6xatUq3svBl4KJFi7SCnJAz9quvvtrs2bNHWxAtL7zwgvniiy+0ljPffPON6devn5zMaQuiQf4+5O9E/l6iLa7CPS0tTbcCpaam6hZy4scff3SnxEXB+Prrr3UrZ8LdH5EjXWDSdRltjJZBrmzdulW3UBD++OMP3coZfl8FK9zfVyQQ7gBgIcIdACwUV0MhZ8yYYa5s00Zr/pK++spcc801WrNHfg2FnDBhgrn11lu15m/EyJHm/PPP1xryoknjxrrl76qrrnLXHM2pzp07B70Iu2z5ct1CXiz3vY633Hyz1vyNGDHCdO/eXWtRIuEeS/IyFHLa9Omez5PiC3fP58R68fpZpeR1KOT48eM9jyvlx3nzPL8XSvilYaNGnq+xL9x9j+ZcYmKi53Fq1qrl+XUp4Zely5Z5vsZSfOHu2yO66JYBAAsR7gBgIcIdACxEuAOAhQh3ALAQ4Q4AFiLcAcBChDsAWIhwBwALEe4AYCHCHQAsRLgDgIUIdwCwEOEOABYi3AHAQoQ7AFiIcAcACxHuAGAhwh0ALES4A4CFCHcAsBDhDgAWItwBwEKEOwBYiHAHAAtZFe4DBgwwr7zyilteffVVtwwcONAtgwYNcgsAxAOrwv2N1183fZ54wi1P9O7tlt6PP+6Wxx97zEyZPFn3BAC70S2jHMfRLQCIfTEX7kWK5M+3vHjxYt0CgNgXc+HetGlT3Yqs1NRU3QKA2Bdz4X7ZZZeZOnXqaC1y8utNAwAKQsyFe8mSJc2cOXNMmzZtTPHixbU17yJ5LAAoaDEX7qJq1apm2rRpZu/evWb79u1uSU5OPl62bdvmlq1bt7ply5YtbhkzZoweAQDsFpPhfkyJEiVMpUqV3HLqqaceL5UrV3bLaaed5pYqVaq4Rd4UACAexHS4R1JCQoJuAUDsi6twZyw7gHjBmTsAWIhwBwALEe4AYCHCXXFBFYBNuKBaQPbv369bABB5nLlH2fTp003z5s1N2ZNOMrVq1TLDhw/XRwAgcgj3KFq5cqXp3Lmz+XnRIrf+x++/m3/dfbf56KOP3DoARArhHkVjx441+/ft01qGDz/8ULcAIDII9yhat26dbvlbsmSJbgFAZBDuKhqjZYJd0OXOWQCRFlfhTogCiBecuQOAhQh3ALAQ4Q4AFiLcFdMPALAJF1QBwEKcuQOAhQh3ALAQ4Q4AFiLcFRdUAdiEC6oAYCHO3AHAQoQ7AFiIcAcACxHuAGAhwl0xWgaATeIq3BktAyBecOYOABYi3AHAQoQ7AFiIcFdcUAVgEy6oAoCFOHMHAAsR7gBgIcIdACxEuAOAhQh3xWgZADaJq3BntAyAeMGZOwBYiHAHAAsR7gBgIcJdcUEVgE24oAoAFkrwBV7cJF5SUpLp2LGj1vw9/MgjpnXr1lrLHzfeeKM5euSI1vx9MXGibkVWYqdOuuWvR48e5o033tBa+CZMmGBuvfVWrfnr07evOf/887WGvAj2+7vqqqvMlClTtJa9zp07my+++EJr/vLr/168Wb58uen31FNa8zdixAjTvXt3rUWJhHu8mDRpkryRUXzFF+76quTO+PHjPY9LiU7xhbv+JnImMTHR8ziU6BRfuOtvInrocwcAC8VVuHPRNENeXwtey4IV7uvP76tgFcTrH1fhXr9+fd1CnTp1dCt3eC0LVri/P35fBSuvf2+5EVfh3qBBA3PWWWdpLX6VKVPGtG/fXmu506xZswL5DwvfH22RIuaGG27QWs506tTJfR6ir2bNmubCCy/UWhRp33vc2Lx5s3POOed4XvSIh1KlShVn+vTp+mrkzfr1651GjRp5fh1K/pTy5cs7w4YN099AeD766COndOnSnsel5E9p2LChs2bNGv0NRFdcDYXMbMOGDWbjxo1ai660tDSzevVqU6tWLVOqVCltzX8VK1Y0jRs31lrkrFu3zmzatElryC/yict3YmJOOOEEbQnfkSNHzNKlS83+/fu1BfmlRo0a5vTTT9da9MVtuAOAzeiEAwALEe4AYCHCHQAsRLgDgIUIdwCwEOEOABYi3AHAQoQ7AFiIcAcACxHuAGAhwh0ALES4A4CFCHcAsBDhDgDWMeb/ARAIQ0gxiYBwAAAAAElFTkSuQmCC;clipPath=inset(32.7% 4.33% 0.52% 10%);" parent="1" vertex="1">
          <mxGeometry x="623.3" y="290" width="135.43" height="101.70424124513619" as="geometry" />
        </mxCell>
        <mxCell id="TG1zTrysk28nqlkXCDqp-2" value="" style="shape=image;verticalLabelPosition=bottom;labelBackgroundColor=default;verticalAlign=top;aspect=fixed;imageAspect=0;image=data:image/png,iVBORw0KGgoAAAANSUhEUgAAAUUAAAFWCAYAAAD+No9oAAAAAXNSR0IArs4c6QAAAARnQU1BAACxjwv8YQUAAAAJcEhZcwAAEnQAABJ0Ad5mH3gAADJASURBVHhe7d0HmBRF2gfwIiwZlrBkUJKg4JKUqIgSBHRRTz0FFAl6gHiA5ymK4unJcYLo4YGI+inZk+AhIEEWBLwTUFCUIFFBUDKS05L663/z7tEz0z1pJ3b/f89TD1U9Pc3M7O47VV0pl6ZTRERkyC3/EhGRjkGRiMjEsvmMQ7NmzVKZmZlq//79cjS2ihUrph555BHVqlUrOUJEFH2WQXHAgAFq1KhRUoqvF154Qf3tb3+TEhFRdPkExTVr1qgbbrhBSvGXkpKitmzZoqpWrSpHiIiix+ee4urVqyWXGM6fP69mzpwpJSKi6PIJinXq1JFc4vj6668lR0QUXT5B8aabblItWrSQUmJYtWqV5IiIosuyoyUrK0v95S9/UYsWLVKHDx+Wo9G3c+dOyfnat2+fKlu2rJSIiKIjoWa0vPfee6p3795S8jRnzhzVsWNHKRERRUdCDd5u0qSJ5HzxviIRxUJCBcXrr79eFSpUSEqeeF+RiGIhoYJinjx5bMdIYqhQArX0icihEiooQuPGjSXn6ejRo2rr1q1SIiKKjoQLiryvSETxlDQ1ReB9RSKKtoQLildffbXteETWFIko2hIuKIJdbXHdunXGwHIiomhJqMHb2YYOHaoGDx4sJU8ImE2bNpUSUfwULlxYde7cWaWnp8sRcoKEDIqYXnj77bdLiSixvfzyy+qll16SEiW7hAyKx44dU8WLF5cSUWLLnTu3+vbbb1X9+vXlCCWzhLynmJqaKjmixHfp0iW1fv16KVGyS8igCBUrVpQcUeK7cOGC5CjZJWxQ7Nu3r+SIEl+9evUkR8kuIe8pAuY6+xvInSt3wsZzcihNbyZbyZ8/vzp+/LjKly+fHKFklrBB8dy5c8Yvm53fDh9WJUqUkBJR9OGWzt49e6R0xY033phwextR+BK2uhXoW5e/hBRLWPndKiACgiI5R0K3Qf0tDjF16lTJEUXfN998IzlfibQlMOVcQgfFXr16Sc7XhPHjJUcUff6CImuKzpLQQfGWW26RHFF8YXC2lQIFChgrxpNzJHRQrFGjhuSs+dv9jyiS7IJi3bp1Vd68eaVETpDQQTGQ5cuXS44oenbv3q327d0rJU9sOjtPwgfFBx54QHK+3n//fckRRY9dLREYFJ0n4YNi165dJedr2dKlkiOKHvY8u0vCB8VAaydevHhRckTRYRcUCxYsqOrUqSMlcoqED4ppaWmSs7Zx40bJEUWHXfMZS4VhW15ylqToaME3sh0sSEsULb/88os6eOCAlDyx6exMSREU+/XrJzlfY8aMkRxR5HHQtvskRVC85557JOdrx/btkiOKPPY8u09SBMUGDRpIztrp06clRxRZdjVFbFp17bXXSomcJCmCIqZS+bNmzRrJEUUWO1ncJ2HXU/RWu3ZttWnTJil56j9ggHrzzTelFFno3c7MzFQHDx6UI5RIcuXKpapWraoyMjJU2bJl5WhkYBpp1SpVpORpQBR/5yjOEBSTwejRoxG8LVOu3Lm1S/o5kU6vjRhh+f8xJV4qX6GCtmr1asufY7hpxscfW/5fSJMmTdLPICdKiuYztG7dWnK+7JaJz4m1a9eqgc88IyVKdFgANtL7+rDn2Z2SJigGuqkd6eYtF5tIPt+sXh3R3wO7+4lFihRRtWrVkhI5TdIERdw78mflypWSi4xI35+i6CtarJgqVaqUlHLOLihiNAQ2wCdnSqqfbPv27SXna3yEV+K+8847VaXKlaVEyeCxxx6LWLDavn27OnL4sJQ8sensbEkVFPFLb2f2rFmSiwwMA1q1apXqcMcdqoCfaYYUf9WqV1cvDB6sXn/9dTmScxy07V5JMyQHsKNa+fLlpeTrUpTeyqVLl1RWVpaUKJHgtkqgcazhePbZZ9WI116TkqfNmzfznqKDJVVQBH/3Frdu2xZwCwOiYGC0w9IlS6R0RbFixdTRo0cD3uOm5OWou8VLuegsRYjdLKmGDRsyIDpc0gXFPn36SM7X22+/LTmi8P3444/qmF4btMLlwpwv6YJi586dJedr7fffS44ofBy07W5JFxQDfVOfP39eckThYc+zuyVdUMSSTf6sW7dOckThsaspFi9eXFWvXl1K5FRJ2dFSsWJFyfmaPXu25IhCh8EY7GRxt6QMin/84x8l52v06NGSIwrdtm3b1Injx6XkiU1nd0jKoIgpeHbseg2JguGvk4U9z+6QlEEx0F67J06ckBxRaNjzTEkZFANN+secZaJw2PU8lyxZUlWrVk1K5GRJGRShefPmkvM1ceJEyREFD3Pcv/vuOyl5QicLuUPSBsXHH39ccr6mTJ4sOaLgbdmyRZ20ufXCprN7JG1QbNmypeSIIoODtgmSNihWDrAA7J49eyRHFBz2PBMkbVAM5IsvvpAcUXDsgmJaWpqqYrPVKTlPUgfFLl26SM7XO++8IzmiwNDJ8r3NgiKsJbpL0i0ya7Zo0SJ1++23S8lXtFbiDhUWqXjppZfUnDlz1I4dO+QoWcFwK+zcOGjQIHXvvffK0ej74YcfVPr110vJ0/PPP6+GDh0qJXI8BMVkdezYMUQ923Tx0iXLTc5jnTp17mz5+pj8pFy5tImTJll+ntFI4ydMsH4depo5c6Z+BrlFUjefsTS8P9hLI9727t2rpn70kZQoaHotP5bz2NnzTNmSvqMFG5PbmTdvnuTiBwsMUHhieavBrpOlTJkyAUc6kLMkfVDs16+f5Hy99dZbkoufxo0bG5u0U+iaNm0quei6ePEiO1nof5I+KN5///2S87Vr507JxQ+230QzMCVfPjlCwahYqVLMms8bN25UZ8+ckZInNp3dJ6l7n+HChQsqJSVFSr7OnD2r8ufPL6X4wZxa9D5zULl/efLkMQJRRkaG0XSNhfHjx6tHe/aUkqdZs2apu+++W0oE+Jtbv369Wr16tZF+/fVXdUb/UsEoC/wtFixY0FgIulGjRsbPsm7dun7/RhNN0gdF8Lca8oqVK2PWDKPk9MQTT6ixNjtB4g/e30rvbnHy5EljoZUPP/zQ+II/q1c2goVKSf369Y1N53r06BGwgzTekr75DNfbjC8D/BCJ/LHreS5XrpzrAyK2e33yySeNzwEr3q/UKxmhBETIyspSX3/9tcd1sPhGonJETRGzV/ytmnMp+d8iRQmagkWLFlVZFn/oWOF97ty5UnKXo0ePqgEDBqjJkycb+9ZEGlp3Dz74oNEZWqpUKTmaGBxRU2zXrp3kiEKzYcMGy4AIbu1kyczMVOnp6WrSpElRCYiA606dOtVo5SXC0DkzRwTFqlWrSs7akSNHJEfkiYO2rzh9+rTq27evUcnAvdRY2Ldvn9Gp9uijjxr3LROBI4JiIF9++aXkiDxxubDLEBARnMaOHStHglepUiWjIwVjcvFvOIPdx40bp9q3b58QgdER9xShY8eOtvd/7tR/2J9++qmUiK7AsJFvLQJjhQoV1O7du6XkbBhOg4C4ZMkSOeJfzZo1VadOnYwgiNp02bJl5ZErDh48aAzXwX5J06dPV5s2bZJH/GvRooVasGCBKly4sByJAwRFJ5gzZw6Cu23yXgCAiSnr3DktX/78lr8vd911l36G8+kBUWvTpo3lZ2BOuXLl0vSanDZ//nzt0iV8eqHJzMzU9IqLljt3bsvrm1PLli21U6dOyTNjzzHN55tvvllyRMHBAORzWVlS8uSWpnO3bt3U4sWLpWTtqquuMs5BDa5Dhw5+xwXbadu2rTF5YdmyZQF3RcQC0RjTGC+OCYolSpSQnLWdCTDljxKL2/d4RrMWyZ/u3bsbXx6tWrWSIzmD5vHatWtV79695Yg1BFD0fseDKzpa4LPPPpMc0WVu7nk+cOCAMZPHnyFDhhhTICM9AwUrW2Fs8YgRI+SINYyTjMe0WEcFRX8/5ERYMYcSi11NEb2psZp3HS8YenPo0CEp+Xr55ZfV4MGDpRQdTz/9tBo2bJiUfGEAea9evaQUQ3Jv0RG++uoryxu32cn7RjuTe9PZrCwtJV8+y9+Te+65Rz/DuRYvXmz5vrNT//795czYGDhwoOXryE5z586VM2PDUTXFBg0aSM4a1s0jgnXr1qnz585JyZPTO1n8tZqwP87w4cOlFBtopmMGjZ1Yt/IcFRTzBVizEJsTEYFbO1l27dplO2YXy7ZNmDDBWAM0lvB3i/83b968csTTwoUL1U8//SSl6HNcR4u/0fTTpk2THLmdWztZ0MFh12LCVLsmTZpIKbYaNmxo3Oe0ordow5ppEy7HzGjJhh6tgQMHSslTkaJF1fHjx6VEboZbLWsttiDAmDynDt9CMCxfvrwx28QKWlK1a9eWUuxhmTLMlrEKSRhyh3nSgVqDkeC4mqK/VZJPnjghOXIzrO9ndyvFybVEvGe7gHjrrbfGNSBCjRo1bPdxx6IuuA8cC44Litdcc43krGHiO7kbBg9fOH9eSp6c3Mni75ZBoMHUseLvdfh7/ZHkuKAYaAoSVgAmd3NrJ4u/933LLbdILr78Tdf19/ojyXH3FAE/4P/+979S8lSwUKGIbFEQyY+N1wpNTq+FDoVTNktU/fbbb6pkyZJSchZ0omDVGm+4z5hIG6pdffXVRi+5NyxLhv1hok7/BXOcjz76CH81TEwhpSpVqshvkDMVLFjQ8n1nZGTIGYnhd7/7neXrTElJCWuFnlA5rvkMrVu3lhxR8JzcdEbPM9ZNtFKrVi3JJQa714MtVEPdNCscjgyKpUuXlhxR8JzcyWIXEKFQoUKSSwz+Xo+/9xEpjgyKROGI18DlWNBbhZLzFc76iNHk7/X4ex+R4tigOHToUMkRBYZd5RKlBzYaChYsKDlfsah9hcLf6/H3PiLFsUGxZcuWkiOyh1oJaojY1hNzf50K84rtZoPEcl5xMOxeT+7cuWMyL9uRQ3IA3zZYHBObnXvDlKFPPvlESsGJRBMjEa7hlPcBkbhGlSpVVLly5aTkbJja+H0STG3EBAxM+fOGGTexWNTFsUERMMncalxToo3LIoqFP/zhD+r999+XkiesxJ0IHZRYWBbjRK3C0iOPPKImTpwopehxdEeL3Y3zvXv3xmyzb6JE4W/I0YoVKyQXX1999ZVtZ0qshkw5OihiX1o7nO5HbuNvyNEHH3wgufiyq8lCrIZMubKmCFbTnYicrG7durabUM2bN0/9/PPPUoqP3bt3q9mzZ0vJEzbHD7SyfqQ4OihiaXW7XwLWFMlt0PuMfZ6tXLp0Sb399ttSig8sgGvVMQoPP/xwTIbjgKM7WgBT/pYsWSKlK7DN4rFjx4xufiK32Lx5s7ruuuuk5Cl//vxGx6Td49GE3uZ69erZLu2H5d5Q040Fx0cEu/uKJ0+e5J4t5DpoPdmtDYDFd3v06BHzDd5QL+vZs6dtQMRyYrEKiOD4oOjvviKb0ORGf/zjHyXnC38Tsd7Nb+TIkbZL/UGgTfsjzdVBkZ0t5EbYsuO2226Tki9sgu+vFziSpkyZop555hkp+brpppvUAw88IKXYcHxQxEDtSpUqSckTa4rkRpgJhCE46NG1guZsr1691Pjx4+VIdHz00Ueqe/fuRiePFXSs4DXE+r6/44Mi2N1XxD3FU6dOSYnIPapWrapee+01KflCYHzsscfUSy+9ZKxjGEm4Z4kFW7p27er3/uXf/va3gHsuRQV6n51u+PDh6GG3TF988YWcReQuWMW6VatWln8X5tSwYUNtw4YN8qyc2bx5s9akSRPL/8ec9GazpgdMeVZsubqmCLyvSG6FZvSMGTMCDopes2aNMZsETWo9OMrR0GzatMnoMMH/Fei2VZ06dYwFW+I1XM7x4xQBw29SU1Mt713cf//9xi8GkVsdPnxY6TVGYyxgMNBJ06VLF9WoUSNjHUqrJdfQLN64caNavXq1mjp1qlq8eLHtnGYzrISzdOlSVaZMGTkSe64IipCenm75LZdoyyYRxcOhQ4eMwLh+/Xo5Ehx0hmCXvbS0NGPwN8Y6YkdEBNhQ79djDOWyZctU2bJl5Uh8uCYo4qax3aR3rJrjljX1iOwgMGIQ9aeffipHYqddu3bGsmDxDojginuKwPGKRP6htjdnzhw1btw42zUDIg3DgsaOHas+++yzhAiI4JqgyGXEiIKDqX7r1q0zmtPRhOl7+H/69OkjRxKDa5rPuPGLzhar+xzFixdXixYtkhKRLywgUrNmTdctIPLFF1+o0aNHq1mzZkVkTjQ+v44dO6p+/fol7v7sCIpu0aJFC3wBMDGFlUqXLq19/vnn8tvkLjt37tSee+45rXLlypafTaBUsWJF7emnn9a2b98uV0xcrqkpAuZYvv7661IiCh12xcOYuxo1asiRxIVlwpYvX26MusBrxv4nmJ2S0z/5ffv2GZ2TwcK9wgoVKkgpPKhhoqcbm841bdrU2I4Wt8TsdijMEQRFt5g+fbrHtxcTUzhpyJAh8huVeI4cOaKNGDFCq1+/vuVrd1LSg6SWkZGhLVmyRN59ZLgqKO7atcvyw2ViCiUlYlDMysrS3njjDa1kyZKWr9np6eabb9ZWrlwpn0bOuCoowr333mv5oTIxBZP0Zpy2YsUK+W1KDOvXr9dq165t+XrdlgYOHJjjOdOuC4o///yzMdnc6gNlYvKXUlJStLFjx8pvUmKYPXu2VrhwYcvX69Z01113aSdOnJBPKHSu6mjJhrf8n//8x9g9zIVvn8KAYVu4uV+0aFE5En+YU/zQQw/ZrkfoZpjW+/nnn4e1wb8rgyJRsvv2229VixYt1JkzZ+SIf5itUr16dWN+cjJC4D9+/LixyITdjn/esGo3Nq0LtYeaQZEoyRw4cEDdeOON6pdffpEj1rDiDJb7uu+++2xXn082mHyxYsUKY2mxCRMmBPxSePzxx0PeupVBkSjJ3HHHHWrBggVS8oWm/ogRI4zpelbLejnFnj17jJkxM2fOlCPWMK8aC04Ei0GRKIlgXcK2bdtKyVetWrXU/PnzVbVq1eSIsyF8vfLKK+qvf/2rbf8AtkfFftbBTtFkUCRKIrhPhuajFSzM+s0336jKlSvLEffASjt9+/aVkq9JkyYZe8IEw12z24mSGIKhXUBMSUlRH3/8sSsDIuDe4aOPPiolX++8847kAmNNMUToAcPqxCdOnDBWDSlQoICxM5pbmiuJYP/+/ca83tOnTxtNpkKFCqnrrrsuYdbji5b+/fsbK9ZYGTBggHrzzTel5E7YVgE97Jjj7Q370ezYsUNdffXVcsQPBEXyb+nSpVq3bt20WrVqafqHiy8Rn1SqVCnt9ttv18aMGZOjgaPk6/z589q0adOM2Uj+VmmpVKmScQ7muOM5TtOgQQPL950/f35t3759cpa7vfLKK5afEdLrr78uZ/nHoGgD2z+OHz9eS09Pt/yA/aXU1FRN/+bW9BqNXI3CodcEtaFDhxrLTll9zv4SAuTf//537cyZM3K15Ka3ULQ8efJYvlfM4KDL9Nqg5WeE1KVLFznLPwZFC1g7Lpj9cAMlrL/373//W65Kofjqq6+MmrnV5xpK0pvV2urVq+WqySszM9Py/SG99tprchaB3TzwunXryhn+saPFCzbtwRQhjITPqYMHDxoDZ7FpViRWLXYL/Y/c6GXdsmWLHAkf1hFs1qyZGjlypBxJTrt27ZKcr+bNm0uOANuuWtm6davk/GNQNEFARBBDZ0okYRfBbt26cY5qEPTmsnr22Wcj+iWCaWFPPfVUUi8w7G/mBnei9IRti62cPXs2qN8rBkWhN0+MjfGxMnE0fPjhh8b2kWQPQWvw4MFSijysvP7WW29JKbn4m++L4Th0BVZHtxPMvGkOydFhv9s6deoYc0r9KViokLr77ruN7VKxcTc+fCzNjgGz8+bNUz9u2yZn2ps8ebJ6+OGHpUTZVq9ebTRzA32Tly5TxvgZNGrUSFWpUuV/Qy3wM8DmSgcD/AwRQHAuZjkkEwy3+dOf/iQlTzt37rStHbnRoEGD1LBhw6TkCbXFgItiGHcWXe7BBx/0uSlrTvny59f++sor2m+HD2uX9POt0sVLl7R58+dr19SsaXmN7FSiRAltz549+jMom/6LGnCR1FJpadoH48ZpZ/RzrT5/JDz2f++/r5UsVcryGtkJQ1uSbcjOyJEjLd8LEjoG6QpssGX1OSHhdy0Q1wfFxYsXW3542alK1arauvXrLf8IrdKp06e1R7p1s7xWduratat+JmXTv9UtP6fsdEvLltq+/fstP2+rtGfvXq15gIWE//nPf+pnJg8GxeDlNCi6/p7iqFGjJOerst4kWbp0qW1vlhXsODZ+/HjVvUcPOeJr2rRpAZvqboHm8pgxY6Tk6+YWLYwFDjCvN1joeMDKKE315rgd3FvUf/+lRHSFq4Mi7sXMnTtXSp5y5c6t/vWvfwU3LcgL7nNhruX16elyxNO5c+fU//3f/0nJ3dDjb7cuoN4MVjNmzDCm8YUKm9dPnz5dFUtNlSOetm3bphYtWiQloitcHRSxnLvdMBmMLcRYuXBhtd93331XSr6mTJkiOXdDr7ydV199NUfzmbGw6pAhQ6Tkiz8DsuLqoLhq1SrJ+XryySclFz70pjZq3FhKnjAwOdLjIZOR3c8AtcRgl3ryBwutFi1WTEqe0ONN5M3VQRFDM6zUrVfPWHUlEjp37iw5T7iftWbNGim5E2b82M3UuOeee4wViHIKzeiMjAwpecIMB6x2RGTm2qCIPwa7P0iMgYsU7KVhB0uQudkPP/wgOV+x+Bng1gk2QiIyc3VQtHPNNddILuf8XevkyZOScyf+DCgRuTYo+huOEexeDsHwt3GQ2+dC82dAici1QdHf/SpM3YuUvXv3Ss4XxjS6GX8GlIhcGxRLlSplbAVpxa4DJhz+roWl093M3/vnz4DixbVBERo2bCg5T19//bWx30Mk+Nuf94YbbpCcOyEg2X0x+fvcQoEm+sKFC6XkqXz58kYiMnN1ULTrlcw6e1aNGzdOSuHDZt2ffPKJlDxhKhoGF7ud3RfDpo0b1bJly6QUPkz327F9u5Q8+RsZQO7l6qB41113Sc4XZlPk9L4WFja9aLN+W8eOHSXnbv4+hz//+c9BrX9nJysry1hD0Q5/BmTF1UER0/jq1asnJU9H9OYzZkOE+0eJzbenT5smJV9PPPGE5Nyte/fuqnDhwlLy9N2aNerFF1+UUugGDhyoNtqMhUSz/aGHHpIS0RWuDorgLzgt1JtemJGCBRxCgVVw/K2y7S8Yu01qaqrf4DR82DC/85ftPP/882q0nxWQsD1EOAtNkAtoLqc3sbQ6der8b701q5Ret6625rvvLNfuM6djx49rvfv0sbxGdsqdO7f25Zdf6mdTtl27dmnFihWz/Lyy050ZGdruPXssP3dz2qlfq+3tt1teIzuVLFlS27t3r3528uB6isHjeoo5hNVsJkyY4Hdfh/Xr1hk91R06dDBqgT///LM8ooxFHbDzH5aKr1y5snr3nXfkEWsDBgzI0eo7ToTP7Y033pCStXlz56qqVasaNTysr4h509n2799vLAGHGid6tBdlZsoj1kaPHs3NnsieBEfXe/nlly2/WexS/gIFtMJFimgqVy7Lx60SaqTY4J2sdezY0fJzs0uFChc2ktVjdun3v/+9/G/JhTXF4LGmGCEvvfSS6tevn5QCw7CdU5g3G+TqzbVq1VKLFy/mDAo/UAtv1aqVlAI7feqUkYKFmj42DnMb1KqxgvzRo0flSPI5pf+cP//8c7+zkyKFQdEEWxNEo1e4Zs2aRhObTTb/8IWBlbhvvfVWORI57dq1M8aMBtzJzWFwu6ZChQrGl03JkiVtd7lLZGPHjjW2o2jTpo3xXjBiIZL7gvuQGiOZTJo0SUtNTfWpeoeTevbsqR0/flyuTMHATnt6zV3Lmzev5WcaSsqXL582dOhQ7cKFC3L15BRO8/ndd9+1PH/27NlyRuJDp2SePHl83sOQIUPkDF9sPkcBVnzesGGDsdAp9lsJB5arQq3ngw8+UEWLFpWjFAx0er388stq5cqVqrHNyuXBQIcWVvbG8Bx/K+U41ccffyw5T/i9TBbYy9uqVjhnzhzJRR6Dog1MwUNzC6szY2uCEiVKyCP28Mfcvn17o3cU2w3YrfhMwcE0PMxDR3DEeNFgVuJGExxfathqQK9luHo8qN39tx07dkgu8cXjPeRCdVHy5Ac+JgRI/LGtXbvWWCAV32D4I6xWrZqxUjSG7bAjJXr0ZrWxWjl+Bps2bVKnT582jmNGTO3atY2fAbaj9Te8Klm9+eabxrAvK9iV8qqrrpLSFenp6UaLx1vr1q2NTr9k8PDDD1tubpaWluYxLMts0KBBtvdO9eZz4PvKCIpElNjCuaeof0FYnq8HRTkj8T300EOW70EPinKGL95TJCKKIAZFIiITBkUiIhMGRSIiEwZFIiITBkUiIhMGRSIiEwZFIiITBkUiIhMGRSIiEwZFIiITBkUiIhMGRSIiEwZFIiITBkUiIhMGRSIiEwZFIiITBkUiIhMGRSIiEwZFIiITBkUiIhMGRSIiEwZFIiITbobvYu+9956aNWuW+umnn+QIJaqtW7dKzleBAgUsN8O3e44TNsOHmjVrSs6Tv88qmM3wGRRd6rnnnlPDhw+XErlJrVq11ObNm6WU2DIyMtS8efOklHMMimTpxIkTqnjx4urSpUtyhNwmWf7sc+XKJbnICCYo8p6iC/3www8MiOQ6+fLlU3nz5pWSPQZFF6pXr54qWrSolIgSV548eSSXc40bNw7qegyKLlSwYEE1ZMiQiDdNKDk0a9ZMconv7rvvllzOpKamqlGjRknJP95TdLFFixapGTNmqF9//VWOUKJbsGCB5JQqV66catCggZR8mc81c0rvc4cOHSRnDzXDG264QXXq1Elde+21ctQ/BkUih0pPT1cbNmyQ0hVOCIppaWnq4MGDUoosNp+JKMeOHDmitmzZkjS92v4wKBJR2C5evKi6d++uypYtazRPy5Qpo5YtWyaPJicGRSIK24svvqgmTpyozp8/b5QPHTpk3OvbuXOnUU5GDIpEFLbJkydL7goMkJ4/f76Ukg+DIhGFbffu3ZLztG3bNsklHwZFIgqbXcdKMne4MCgSEZkwKBIRmTAoEhGZMCgSEZkwKBIRmTAoEhGZMCgSEZkwKBIRmTAoEhGZMCgSEZkwKBIRmTAoEhGZMCgSEZkwKBIRmTAoEhGZMCgSEZkwKBIRmTAoEhGZMCgSEZkwKBIRmTAoEhGZMCgSEZkwKBIRmTAoEhGZMCgSEZkwKBIRmTAoEhGZMCgSEZnk0nSSJyIHSU9PVxs2bJDSFfXr11eLFy+WUs6kpaVJzlPXrl3VyJEjpRS+hx9+WH322WdSugL/78GDB6UUWQyKRA5lFxSdIJpBkc1nIiITBkUiIhMGRSKHKlu2rOScp3Tp0pKLPAZFIodq37695Jynbdu2kos8drQQOVRWVpbq3Lmz+uSTT+SIM9x0000qMzNTFSpUSI5EFoMikYNdvHhRLV++XK1atcoIktFw5swZtWLFCvXjjz+qdu3aqSpVqsgjkZWSkqKaNWtmpLx588rRyGNQJCIy4T1FIiITBkUiIhMGRSIiEwZFIiITBkUiIhMGRSIiEwZFIiITBkUiIhMGRSIiEwZFIiITBkUiIhMGRSIiEwZFIiITBkUiIhMGRSIiEwZFIiITBkUiIhMGRSIiEwZFIiITBkUiIhMGRSIiEwZFIiITBkUiIhMGRSIiEwZFIiITBkUiIhMGRSIiEwZFIiITBkUiIhMGRSIiEwZFIiITBkUiIhMGRSIiEwZFIiITBkUiIhMGRSIiEwZFIiITBkUiIhMGRSIiEwZFIiITBkUiIhMGRSIiEwZFIiITBkUiIpNcmk7yZGHz5s0qnI8oV65cKiUlRZUtW1YVKVJEjhJRomNQDKBQoULqzJkzUgpPWlqaqlatmmrTpo266667VKNGjVTu3KykEyUiBsUAIhEUvSEojho1SjVt2lSOEFGiYHUlDlavXq2aNWum/vGPf8gRIkoUrCkGEI2aotmUKVPUQw89JCUiijcGxQCsguKcOXNs7wni47xw4YKRTpw4oX755Re1bds2tXDhQnXw4EE564p8+fKpjRs3qurVq8sRIoonBsUArILixYsXQ+4oOX36tHrrrbfUCy+8YARMs6eeekq98cYbUiKieGJQDCBSQTHbv//9b3X//fdL6bLixYurX3/9VRUuXFiOEFG8sKMlxu677z7VoEEDKV129OhRNX36dCkRUTwxKMYBAqO37du3S46I4onN5wAi3XyGjz76SHXp0kVKlz355JNq5MiRUiKz8+fPq02bNhkdUui8wmwh3HLAeM+rrrrKKEfDsWPHjA4y/FumTBl12223qWLFismj/p08eVJ9+eWX6tChQ8b95Lx586oCBQoYg/hvuOEGY7YTJSgERbJXsGBBfGl4JD0oyqPh0YOizzVffPFFedTajBkzND0IeCQ9UMijwWvZsqXHNQYNGiSPXKb/MWvNmjXzOKdNmzZhv+fjx49rTZs29bheoPcKFy5c0GbNmqW1bdtWy5cvn8/nlZ0qVqyo9ejRQ/v222/lmcH7wx/+4PG6/vWvfxnH8V7xGvUg5vF/6YFMa9eunbZkyRLjPG+HDx/Wxo4dq3Xo0EHLnz+/x3PNqUiRIlr79u214cOHG8+hxMKgGEA0guKrr77qc83MzEx51NqYMWN8nhNOIMAfpPkaDzzwgDxyRceOHT3OQVq6dKk8GpoJEyb4XGvOnDnyqLXvv/9eu/baa32eFyj97ne/0/bs2SNXCezmm2/2eL5eU9cuXbqkderUyeO4d6patapxntnixYu1ChUqWJ7vL+k1UG3mzJlyFUoEvKcYB9OmTZPcZWiit2jRQkrxp9e8JHcFBpmHY9KkSZK7DM1QvZYkJV96EFVNmjQxFuII1SeffGJ8jj///LMcCZ1e01NTp06VkrVu3bp5NNknT56s9Bqk0gOyHAnegQMH1L333qvefPNNOUJxJ8GRbES6pmhVc3rmmWfkUXuxrClmZWVpaWlpHucVK1ZMO3PmjJwRnF9++UXTg4fHdZ566il51Nf06dM9zjWn66+/Xhs6dKj2/vvvG2nw4MFa9erVLc+tVKmStmXLFrmqPe+a4sCBAy1/3t5p+/btcgVN27Fjh5Y3b16fc8qWLWt8tq+99po2fvx4Iw0bNsxoNlv9H2hu41oUfwyKAUQqKO7bt0978sknfa6FP+wTJ07IWfZiGRTB6rXivmYoEAS8r7Fu3Tp51JNeM9T0GrPP+bfccou2fPlyn+Yq4NiXX36pNWjQwOd59erVM4K7P95BsWjRoh7l7t27ax9++KERrJ9//nntuuuuM+7Jmj3++OMez8mdO7f2j3/8w+//jd8FBEfz85DsfhYUW+x9DsCq9xmzT/z1PutB0+gxPXv27P+m+WERCJTNatWqpRYsWKCqVq0qR+y9/fbb6oknnpDSZXpQVA0bNpRScPQ/fKNnNJv+h+jTnAc9eCk9sEjpMix7Nnv2bCn5h18rvXZn9BhnQ6/rN998IyVPuPann34qpcvuvvtu47XptSg5Yk0PQEaT1vt9vPrqq+q5556Tki80tdFD7K1ixYrGIHs0483wnvbu3asqVKhglNH0Re83/v9sAwYMCKopjN8PfD5bt26VI5fh89KDr5QoLhAUyV4wzalwUqtWrbRDhw7J/xJYrGuKoAdcj3PRTDx48KA86h9em/m5SKNHj5ZHPX3xxRc+59avX187deqUnBEYequ9a4zFixfXjhw5Imf48q4pZqfPPvtMzvDP6nWvWbNGHg1MD+I+z//ggw/kUYoXdrTEQXp6uho+fLgqWbKkHElM3h0umLOtN6Gl5B86H8yw8EXnzp2l5AmdG97+8pe/GLX0YOXJk8eopZlhphAW7wiF3jw2Ok2CoQdtyV1hdcwOOpzw//Xs2VMNHTrU6OBp3bq1PEpxI8GRbESrpoiE8Wy7du2S/8m/eNQUf/vtN58xgs2bN5dH7elNQ2Ooifl5999/vzzqCZ033q/p6quvNmp+ocK1Spcu7XGt/v37y6O+rGqKGJYTLNzr9H7+HXfcEdZrp8TBmmIc4X4i7itNnDhRjiQW1GRxX89sxYoVAackZmZmGvfbzLp37y45T3oT1OMeJ6DmhJpfqDBjJCMjQ0qX4b5rKBo1aiS5wHAu9uAxmz9/vjG3HUOLvO9FU3JgUAwDbqzjRrldOnfunNGMOnz4sNqyZYsR9Hr16mUEQG/Hjx83AkawzdJYsxqz+OGHH0rOmvfYxHLlytk2SX/44QfJXVG3bl3JhQ4dH2bfffed0fEVDHSe1a9fX0qBYaqeVbBfv3698bmVKlVK6a0B9c9//jPsDdAoDi5XGMlOpIbkZFu0aJHlzAeMA/z111/lLF/xaD4DmoLer7dmzZqWQ2Tg6NGjPtPj/I3D7NOnj8e5SFWqVNFq164dVsL4QO/rbdiwQf43T97NZ7zPUO3fv99o7puvY5cwfjJ7mA+eR4mJQTGASAdFwOBf73tuSP369ZMzfMUrKMJzzz3n8RykVatWyaOe0Hvqfa5eG5RHfeG+qvf5kU52c5W9g2K1atXkkdBs3brVeK75WoESxjNiTjkG82O+OSUONp/jAOMS+/fvL6UrME1N/5lIKXGEMu3Pu+ncuHFjpdfgpOQrFvfdcDsjGFjJJhzXXHONce9yxIgRPs13O3pNWy1evNhofus1SPXOO++weZ0gGBTjBPcY0TFghtW37QY3R0o4f3h6c1k1b95cSpdh+TPcPzXbuXOn0XFiZtfB4o9eO49owlCiaMNSZk8//bT66aefjPvDt956a9BBFkOHHn/8cWNFdu/PlGKPQTFOSpcurerUqSOlK7BuYLBQ2wiVefZFKLxri9iECzUdM+8OGMxE6dSpk5SseX8xANYvxBqEkUp33nmnXDn6EAgR3JYuXWp0tM2bN0/9+c9/VjfeeGPANThnzpypBg0aJCWKFwbFOCpSpIjkrgilORlsr2o21JjCrTVhOiBqXWbmJjRqoN4Dtu+55x5VokQJKVmrUqWK5K7Yv3+/5JIbplTecccd6vXXXzemeSJIYipj3759Vfny5eUsT6NGjfIZokSxxaAYR1a//FY1J7BaXTrUptZvv/0mudBhxenf//73UroM90CxEjasXbvWZ7mvYJrOaJp7W7VqleScJTU11RhHOWbMGONWg9UcevxMUcuk+GFQjBM0PzGezRsWibCCaXLeQu2kWLZsmeTC492Exv8/d+5cI++9GAMWTWjbtq2U7FmN3fTurAkFBpfjviaCTizuJeIWBtZvxLYFy5cvl6OBYYwjtrZF09rb999/LzmKBwbFOBk3bpxPr2j2viNWMADa244dOyQXHMw0yYlbbrnFZ0Uf1BYB98PMHnnkkaBmpWDuL2pQZrgP5z0jJhgIgrifh04ONMtR665evXpI85GDhdsF+FlhW1p8JpjHjFV5QoVbDN6C7S2n6GBQjINdu3YZsxy8tWnTxjaQYMMjb1Y1TTto5mbX6sKFpp53k3jRokVq9+7dPktgBdvrjBqwd2BAcHvvvfekFDw0S7G0Vzbcc8UQmWjsp43bGUjm5eA+//xzj/8/GFYdX5gJQ3Gkf+ORHwUjPHhbb95p+h+qzzWR/vOf/8hZvk6fPu2zijUGgAezlBdmn/Tt29fjudkpmMHbZnpT0ed1PPvssx5lbHwVCgxC976m/uVgzP4JFgbEWy1Si+W57HgP3sZMnVBYDWr/05/+JI8Gp3Pnzj7XwMK5FD8MigFYBUVM0UIw8pdwDlbAwYrSU6dONYJSnTp1fK6VnYIJTk2aNPF5HlZw9rdyNx7r0aOHz/OyU6hBEVq3bu1xDe9pfe+++66cGbzHHnvM4xpI+Oz1prScYW/nzp2Wn21GRobtdETIaVDEz9g7EGPNSezWGIyPP/7Y47lIWIn9/PnzcgbFA4NiAFZBMdKpRo0a2oEDB+R/tDdq1CjL52OKGaYBYo8PBIFz584ZtS9sKeA9nbBx48Ye5XCC4pQpUzyuYU4IkJj/HCp8kdjNIcaCvAggeF9mP/30k7FNaGpqqs9zsLUA9ojxJ6dBEbCvi/ka2alr167awoULffa1wXv473//q/Xq1cvyednbrFL8MCgGEO2giD9MBIRgYI4sVqS2uk528m6GmtOAAQOMIGI+Fk5QxIrYWMDCfJ3s1KVLFzkrdJgj7b0eojmVKlVKq1u3rhHY7TatQsK8YgTuQCIRFPFZYM9o83XMCTVJ7BeDWj5+dt77wJgTWhMUfwyKAUQrKKJGhZ3tvGsSgWBf42BXZTEn1GhQi4xEUITevXt7XCc7Bdq/OhAsruBdmw0lYQuCBQsWyNX8i0RQBGxEhQ3/zdcKNeEL6wIXp00IDIoBRDIolitXTrvtttuM1Z2DaS7bwb0s3CdEjcjq/zEnLFc1adKk/91bi1RQ/Oqrrzyug4T/KxJ/2Linhp0A8Xl5/x92KSUlRXvwwQe1vXv3ylUCi1RQBLzmESNGGEHZfM1ACbXIYIM4xQZ38wsAA4lDnU4HGK6BAboYclK5cmVjUHagKW+hwjAYjA/EoOyVK1caC9YCppBhp7pWrVoZ4wX1wG4cBwzjMS86gfF8eqCWUvD0IGuMLzTPynn++eeNvUYiBUNzsJI1xi1iMVokLJ4AGIOIoSsYII5ZIvgXs25CgWubpxTi+ffdd5+UwoPfFXy+GBOK4UqY6YP513gvmBeN4UHXXnutsfgsxjZirGOgOdEUWwyKDoJAhWCMFG2YNYJB0mbYFhWbckUTfl3xPsPZriCeECyT7TW7Fb+iHAQ1jlgERPBeTxF7FVtN2Ys0vL9kDC4MiMmDQZFChuag954ymMESq4BMFE0MihQyrO6CNQ+zYYms3r17S4kouTEoUkh+/PFHNWzYMCld1qdPH59FHYiSFTtayNK+ffvUmjVrjPuE6L0+cuSImj59unr77bc9Fj1ADzuWzsJSYUROwKBIlrDXSI0aNaRkD8vn//3vf5cSUfJjUCRLWBLLPL7RCnqcUZvEmEEip+A9RbKUPTjaDgZ9z549mwGRHIdBkWxZLWyL8XY9e/Y0ZtBgv2Mip2HzmWxhFsZ3331n9DhjPxZ0pjRp0sTYNoHIqRgUiYhM2HwmIjJhUCQiMmFQJCIyYVAkIvofpf4f4lD6GpP7YdsAAAAASUVORK5CYII=;clipPath=inset(0% 0% 20.67% 0%);" parent="1" vertex="1">
          <mxGeometry x="958.3" y="292" width="123.54" height="103.16673684210527" as="geometry" />
        </mxCell>
        <mxCell id="TG1zTrysk28nqlkXCDqp-3" value="" style="shape=image;verticalLabelPosition=bottom;labelBackgroundColor=default;verticalAlign=top;aspect=fixed;imageAspect=0;image=data:image/png,iVBORw0KGgoAAAANSUhEUgAAANwAAADLCAYAAAAFif2iAAAAAXNSR0IArs4c6QAAAARnQU1BAACxjwv8YQUAAAAJcEhZcwAAEnQAABJ0Ad5mH3gAACg/SURBVHhe7Z0JtBTF1cc7CSAgS1gUREFW2URUFlFEUMGEfdGICRGQVT2JbEcBBfWAKCjKIouySgwgGATUiIIIyL6IIAENKiLwABFEQBYjfv31v6ZqXnV1z0xv06/nvfs7p850TVdXb3W7blXduvUb3UAjCCIUfst/CYIIARI4gggREjiCCBESOIIIERI4gggREjiCCBESOIIIERI4gggREjiCCBESOIIIERI4gggREjiCCBESOIIIERI4gggREjiCCBESOIIIERI4gggRmvEtceTIEW3nzp3awYMHtcOHD8fDoUOHtKysLO3s2bPar7/+ql28eJGl/+1vf6vly5dPu+SSS7QyZcpo5cuX18qVKxcPV155pVajRg0WkJYg8qzAHT9+XNu2bZu2detW9rtp0ybt2LFjfG8MIST/93//x35T8Zvf/IYFNX2hQoW0+vXraw0aNIj/Vq1ale8l8hJ5SuB27NihLVmyRFu8eLH22Wef8X9jguVUqLyinuPyyy/XOnTowMIdd9zBakki95OrBQ4F/OOPP2YChgBVEaAWcnLbTtMJZKFycqxIU7hwYa1169Za+/bttbZt22rFihXjKYhch/HCcx0nTpzQn3/+eb1ChQoo8bpRsNmvXTCExPZ/Ee6//379vffe0w2VU3/ttdcs+w0h0bds2aK/+OKLln1qSHYusc9QP/W+ffvqu3bt4ndD5CZylcB9+umnes+ePXVDPWOFN5mgIZQoUUK/99579QkTJugjR4407YMA1KpVS//ll1947rq+fft2UxqExx9/nO/V9a5du1r2jxo1ignP66+/rvfu3VuvUqWKJY0axHXfdttt+qJFi/SLFy/yMxCZTq4QuNWrV+uNGzc2FVa7ACH63e9+pw8aNIgJp6H+seP/97//6dWrV7fUQOvXr2f7BakE7tixY3rx4sXj14DfggUL6vv37+cpYmRlZekPP/ww2++k1itXrpw+adIkdp1EZpPRAoeao1WrVqbCmSzUq1dP3717Nz86m/Hjx5vSQRC6d+/O92aTSuDAlClTTPuR13333cf3mtm6datetWpVU3q7IAS4UqVK+sKFC/nRRCaSkQJ38OBB/YEHHkhZQyBgP9INGTLEtob48ccf9d///vfxQo0AlRTnUHEicFBBIUTqdW3evJmnMHP27FnWZkMaJ/eC3/r167Nancg8MkrgUJjR1oJAyAKSKCBNmTJl9JUrV/IcrDz66KOW4yCcdjgROPDWW2+Z0kBQoPImY+nSpUwdTSV0CCJNu3bt9MOHD/MciEwgYwQOquCNN96YsPDZhTp16iQtkGhb5c+fP54eAoqOlFOnTvEUZpwKHLj55pst17Z48WK+154vv/ySdaok+pio+SEdhHTu3Lk8ByLqRF7gfv31V33MmDFMMJIJl1pImzdvrp8+fZrnYk+XLl0sx6E9lwg3ArdhwwZTOlw7hEnu9bTjhx9+YL2T6rFyXL5msd2xY0fWaUNEm0gL3FdffaU3atQoXrhEQAFEQatWrVo8Lu/v1q1byh69bdu2mY5BHhUrVkx6nBuBA506dbIINHobU4FrUIcYcH2FCxfWe/XqpRcrVsySL+IlS5Zk6iwRXSIrcCtWrGAFSxUmhGuvvZaNbxUoUMCyf9iwYTyH5Nx+++2WY9944w2+1x63Ard37142DCHSCqH46aefeIrEYMiiR48epnPheosWLcoG4v/617/G/5P34/eJJ56ID3kQ0SKSAjdx4kRWeOTChMKKMS2ol+ihw7a8H2HcuHE8h+RgfE0+DvnUrl07ZSF1K3AANZJaG40dO5bvTQ7UafTGysfiWtFuQ5sWnUGJBtJhAXPmzBmeExEVIiVwUKX69OljW4BuueUWfd++faxjAd34qrANHjyY55Kali1bWo6fN28e35sYLwKH65XPBeG7/PLL9QsXLvAUyYHQQUWWz4n8ypcvr3/33XcsH9HTqt4TPiLqoDuRs0TGePnkyZPMeHft2rX8HzOGmqQZ6pk2ffp0zShoFuv+p59+mm8lBwbMM2fO5LFshg8fzvJPxqeffqotXbqUx2LgGBybDLtrM1RarWnTpjyWHNzriBEjeCyGIbiaUbtphmrJ4kbbzTQDAhgCqBkfJ+2dd97RjA8W/5fISSIhcBA2TFHB5M9Ul4OC5veSISSYSArc5ienR4FWBd8JXo9TcXLtOJfR1tWWL1+uNWnShP9L5BQ5LnBuhI3wBglddMjRef8kbOGA2tRoH2t33XVXQpWdCIccEzg7YYOKlNtBbZMTkNBFgxxRKfHi0WmwceNGk7Bde+212tixY9kMaIBCAqEU7S3BPffco/Xr14/HnDFt2jTt9ddf57FYwW/YsKH2wgsv8H9Sg06TRx55hMdi3HbbbdqoUaN4LDmzZs3SZs+ezWMxqlWrxv53y7Bhw7Q1a9bwWAw4MZo3bx6PxfjHP/7BOpoEuO+CBQsyXy61atXi/xKhAYELG3VA1xA2vW7dumymtow6i9ooLKyr+/z58zyFc6677jpLt/m6dev4Xmd4GRaQwcwEjB/Kx8MQG+ZcbsExmCen3tP8+fN5imwGDhxoSoNjYFVz/PhxnoIIi9AFDoPT6svHPC/15WP8CIUTwiin3bFjB0/hHDu7RszmdotfgQP42Mj3hPDSSy/xve5Yvny5KR/cV+nSpW0F2O4j17Rp05S2nUSwhCpwH3zwASsUcgGB+dZ///tfniIbTCxVC+Zjjz3G97oDfknUvCZPnsz3OicIgYP/E/l4XBesRQz1madwh50BNlw5qMCoAAKmpn3ooYd4CiIMQhM4CBXsAIXA4cXDznDVqlU8RTaY1SwXChwDh0CYrOmWc+fO2apxiabgJCMIgQN26m2iCaqpwAwBdQItwtq1a3mKbFDz2U2OnTp1Kk9BpJtQBA5qC+ayqS969uzZPEU2aOfA9ElN+/777/MU7rCbDNqhQwe+1x1BCRwMr9V8vNbeYNasWaa8cI/w0fLzzz/zFNmopnEQVBiB79mzh6cg0kkoAqd6xEJIVMBgEymnQ4Ho3Lkz3+seqFyq8MKDlheCEjjU9mo+6MTwA+bQqfcJb2R2rFmzxpQW2/D3Qt7B0k/aBQ6dHFAd5ZeL2s6usY7Z2ar6h2O//vprnsId+MIXKVLElF++fPlYLeqFoAQO1KxZ06IGeukQEti1DUuVKpVwxsDw4cNN6RHwYSTSS1pHYQ2hYsa1xnlY3CgEWv78+bW5c+eyRTBUnnnmGe3ChQs8FqNv375a5cqVecwdH374ofbTTz/xWGwMqkWLFlrx4sX5PzmHUWvHn4tg0aJFfMs9WK+gY8eOceMB5H3ixAlt/PjxLK7y5JNPasaHzzQQDyNrGCIQaQRSly7svqKY62YHpt7INSECarsjR47wFO6x64KfOXMm3+ueIGs4uPiT88F1ot3lB7TDZFURATW8Or4p+OKLL0wOmXAsJveiR5NID2kTOKiBUN/Ei8dLNWqXhN3fcCmgCsfQoUP5XvdAZUXngJwfClSiwueEIAUOoMdQvefPP/+c7/UG/GmqeSbrkHn55ZdNaRGS+XUh/JE2gYPzU/nFw2f+oUOH+F4zBw4csHyZ4b/j5MmTPIV7DHXSlB/yv/POO/lebwQtcDhWzc9Qq/leb8BgQH2WePaJ2q34AGJ8ThyDd5bMcxnhj7S04bDe2htvvGFqoxi1FVug0I7Jkyczu0mZXr16scmTXkF7yCg8PBazy4QNZpS4++67+VYMXO+bb77JY964+uqr2X0aAsT/0bTz588ntNfEOSdMmBB/V/iFYfmYMWNYnAgYSF3QqF/MsmXLJhy0xsC0qvrhGIwXeQVfbYzlqXkePXqUp/BG0DUcwIA+rk3OE+1ZP6g+W5C/IYjMXUMihCdrcQzadok0EsI7gddwy5YtY1bsosYyzqE999xz8RkAKuixNNQdHov1JGKtND8rhO7evdu0mqlRkLR69eqxZYGjBtxKqKxcuZJveQPuFOQeSLyDb7/9Vnv33XdZ3A70EBtCxmOxGR1PPfUUjxFBEbjAQXUULxq/1113nda1a1cWt2PcuHEm9QeC2r9/fx7zhjptBQWuWbNmPBYtML0H1yfAs8Aikn4ZMGCASU1HvlAdE4E1yQcPHsxjsWeGqUSGpsH/IQLBeLCBYRSUuEoiAizaE7Fx40ZTWqg0frvGAdZ8MwqYKe+3336b7/VOOlRKeN5S8zTaunyvdzDoj5kDat5wrpsIqP2XXXaZSbXs168f30sEQaA13KRJk0y1G9QaDDQn4p///KepY8O4Hq1Hjx485p1Vq1aZvu44R1R9eWCtb0xClcnKymIqoB/gw6RLly6m5wugwicCaj+0C7wHATycGYLIY4RfApvxffjwYTbjWC7o4IYbbuBbVjCDWgXtLKg3XoF1xYEDB3gsm2TX4ZTPP//cYgkD/OZt9xwgKNdffz2PeUPNF3nidSe7XrSnv/nmGx6LMXXqVO3BBx/kMcIPgQkcTIVGjhzJY0RuAZrKNddcwz42hH8CETj0aGGMDbVLQPJLRIyPPvqI+aEh/BFIGw5DAcePHydhy6WglvPi6IiwEkgN1717d+YRC+03vBz8FilShO+1IlvwA9G2SHaME3Dec+fO8Vg2fvMVqNctCCJ/5C2enUxQedvh5h0VK1aMaTB2szwIF0Dg/IBJi6qlyIIFC/hee0aPHm1Kj+C3ex2oEzsNQWYTM4MiHcMCgkGDBlnynjNnDt/rDywGYgizKW+72fYyWMwS1ibyMcmWbiac4VulXLdunclSpFChQlrbtm15zJ4VK1awr7lMsuEDp+zatYtvZVO3bl2+FW1gIKBidz9egPNXuebEs09lzVK0aFFmBSPeE7SQJUuWsG3CO74FTl5NBi8HLxdClwh0q8Pzr1wAChYsGMjqLurqMcYHxbYgRxH1w4Bnqd6PV9SPGZ491hlIRZs2beLvCc8SK/QQ/vAtcPJLwMv5wx/+wGP2bNiwgfVqClCw0PuFgVq/oEbAyjgymSJwNWvWNF07nqXd+JwXLrvsMibQqKUEsDVN1dWPj6cMBuSDuqa8ii+B++qrrywWEakETlWTULAaNWrEY/7A9ahu0TGGlAngg4OpNTLff/+97UC7Fxo3bsy3skmlssIIAR8sWVCd1IxEYnwJHPzTy1SqVCml/5G9e/eaXiCoUaMG3/LHoUOH+FYMqKp+5tSFTYUKFSzPBrVKEFSvXt0ybOPEMLlly5bx46CNqO+ccIdvgRMFBL+pajdgJ3AoDH75+eef2cRJGT8mYjnBVVddFe+kEAQlcOpHDefBu0hF8+bN+VZMG9m0aROPEV4IrIbDVxBzzlKBdoNoiAuCUPtgyykDoVZVtKgDax1VJQ6yhpPBO3AicOo7xfVA1SW84Vng8MI++eQTk5qSyogX7RFVMFDIkvVqOkUtmBC4RC4dogpqOJWgBA7qKlRsmS+++IJvJaZEiRKW6yK10jueBQ41FXxlCNDDhvXdkoFODVlAodbUrl2bx/yhFkx8EOwKcJRRrxcfjaAEDnmp04Awfqqq4XbUr1/fpOrCZw3hDc8Ct2PHDr4VA4v7yVP07VAb6RC+oDpM7ApmptVw6vWikAclcADvSB02caJWYl6jaAbgeBoa8I5ngZPnnDmp3YD6ciFwQXSYgNwgcGoNh/ac2vPqB3zc1Daik55KWQvB8X4nx+ZlPAsc2mKitxEvwYn6hper9sIFWcOpX+9MUykx7qXeg91kWq/Yfdyc1HDqhyvIj0Bew5fAycLjpHB//fXXpjYcCGpgGgKnfr0zrYbD84TLBZmjR4/yLf+oAgfh3rdvH48lRn23mDWgPmvCGZ4FTi3gTgTu1KlTFoFDL1gQnDlzhm9lAwPcTAPTYGTwjGVTOD+ozxrvwu65qVxxxRWmmhftue+++47HCDd4FriDBw/yrRhOBE7u1RSoXdVesZsHF8RwQ9jY+e+0e25eUJ81BM6J6RhqXthjyqjDO4QzPAkcXpTsaBWoqpAdasHBV1Nts3hFzRuFJBMnS9oJXFD2lOoHyKnAgbJly/KtGCRw3vA04xuFWy0YmEqifgVVKlasyEywZI4cOcK3/AGPYRcvXuSxGEHlLUB3eKtWrXgsBtz6jRo1isf8g6k08Bwtv5aNGzeyZ+cXCBfsXWWQL/JPBRzWyj2amOGPtf8Id3gSOOj9aluDCA70/np4LWlHvi54ZYZrDcIdnlRKrGxKpI8oChuQr4vKgDc8t+GIvI2wPCHc4UmlhA2e3MWMDgoxCJ4MnEp+UU6Pc0I68xaIRyXOg3OAIM+Dc4gAgr4P9Tk57bRSj5sxY4bWs2dPHiOc4kng4GtedbEGx0GpFqvHWgIqQTW805m3APaj//nPf3gsmyDPg/uAkMmFG7aMsIP0yw8//KC99957PJaNk+sX60CI4jJnzpykqyIRCYDAuQWLruNQOWRlZfG9ibnhhhssx505c4bv9Ych7KZ8ixUrxvcERzrd5AlatmxpcWm3d+9evtcfWHddzhfnwfmccNNNN5mOnT9/Pt9DuMFTGy5//vwWK47Tp0/zrcRADVXVI1ifBAGuSSYo64ywwXUb74XHYgThYAmozxrvIpVWIpBdIQIn466EFU8CB1T3BXbW+ip4uaLdI1BfpFfUQpmpvWgYp0yXwKnPGudxKnDq+8009xVRwbPAYaBZFh4nFuR2Y3dBCZw6Fw82iGrBzQRUwwCQLoFDO9HJeCrcnquuz0ngvBFYDedE4DDNX7UyxyzwIChVqhTfygZW7ZmGahQMtS8oz2N2zxrvJBXqu4WJGBk+eMOXwMnd405Uyjp16vCtbHbu3Mm3/IHrUdXVTLT3UwUO7d6g7E3xrNVnZPdOVNR3i9kDhDcCq+HUVTPtUGeF4+UHJXB2hSBoW8p0A/8iqkoZpOq2fft203ADcCJw+/fv51uxGhfNCcIbngVOnjiKlwgPXqmAExu5NxHHqb5RvAKBUwtTpgmcer34IAU1iRa9n+rsbvQ0lixZkscSA6Nt0buM30zxZh1FPAscPDnJwFdhqtnJmC4DH/oyGIwNYlazOn0EZJpKaXe9Qalve/bsMbWfIcxO1yZHzSjAR01994RzPAscOinUBrf8YhKBRSXUdkQQaqVaMPElzvQaDoU7KIFTnzHydqJOCi1E7vFt0KAB3yLc4lngwE033WQSHifu0/CSVdUviGWZ1BoO15VpAmdXw9nV3F6we8ZOBA5qqDy5F0MUTjy0Efb4EjioFkJ4UMCdTGRUXzKOC0Lg1JoA6pOTntMogQ+EaCsJgqrhUEupmoUTgZPfKa4Nq+moVj2Ec3wJnKxaQPA++uijlCZV6ksWKotf4GJOJdPcuaGGU4UiqBoO2oesWeA8anvajg8++MB0TdBqCO/4FjjZbwhUDyxBnAz0uqnmRKrbdC9A1VG9UmFMS1Vfoww+EKphQBA1HBw+qS7Nq1SpktKBE57d+++/H3+GaMcFsVJtXsaXwGGKDlYvlb+AeEGpuOOOO0zHoJBh3W+/wKmsrJLBnhK+MDMFdeoPVLcgfJn8+9//5lsx8IzkZagSgUU7ZINnDMCrPl0Id/gSONCxY8f4FxAvctmyZWw7Ga1btzbVPDju7bff5jHv2LVJglqYPt2gdlN9RMJxaxCex7AOu/yBQ02F9btTAXVSgOObNm2aUQtcRhHfAteuXTu+FXuR+Eqn8levfiVxHAqF3PXsBfjAV/PIFIFTrxMF3EmnRiowWXjlypWmDxxUSWgZqViwYEFcY8DxHTp0YNuEdzzN+FZBbyXG4ERWDRs21Hr16sW2E9GnTx/2MuXT9+3b19GijolAwUIhEaDQwtB23Lhx/B9/oONh6tSpPBYDnRojRozgMe9MnjzZMlYGdfLxxx/nMW9AxX/rrbd4LJtp06bxLXuwdtxLL73EYzGwiIcTY2ciCRA4vzzzzDOQGhYMIYpvpwpyWqN9YNqXCcEQaNv/vYag8xPB67MV14P3VLduXf62CT/4VinBn/70J75lvB0XFaacVu2dywRkNS0Igs5P4PXZiuvBe+rcuTPbJvwRiEoJ7rzzTm316tVpKzREzoHeUhgRpPKsTaQmkBoOPPLII56ETTTKgbzth6DySUW6zoO2Z1TAPd53330kbAERWA0HYbv66qvZl1BkiQZ2sg4LmDL97W9/47Fspk+f7mjaiB3oOJkyZQqPxQoMrmfRokX8H++g08Ror/JYDFhrqP+5ZdiwYWzwX6ZZs2ba3//+dx5zD2Z3Dx48mMeygXs71cWhzNq1a7Xx48fzWIzNmzezjjAiACBwQTF69GhIWjwUKlRIP3nyJN9rT6tWrSydBYaQ8r3ugds9Nb9LL71UN9oxPIV30uUm77bbbrNcs1Hw+V5vGMJmys/48Og9evTgexPTrl27+LXgt169enwPEQSBCtzx48f1AgUKmF50qgK5dOlSU3oUjPLly+u//PILT+Ee9KghHzlfo3bie72TDoGDj89LLrnElGe+fPn08+fP8xTuOX36NPPLKeeJsGnTJp7Cni1btliOMWpEvpcIgkAbC5gjh7E0mRdffNGyeKMMLB6qVq0ab7cY18TSz5s3j8W90KRJE76VDVSlKIKZ8rJbBajAmBjqZ6FKjBXKfkLxbBs3bpzS8HjAgAHx94BfuFJA+40IjsBb58OHDzetHYfZA8kGb/FihwwZYupwwX9oF3nt8YTAQXAFyA89qFFEvS5ct90HwylYA+6FF14wdejgOQ4dOpTH7MHg+Pr16+PPHL/PPfdcYC76CA6quaAZMWKERTXZtm0b32vF+MLrZcqUsaiBCxcu5CncceLECctgr1Fj+FLTQDpUygYNGljabytWrOB73fPyyy+b8kLetWrV0g0B4imsQK2tVKmSqe0GtTzZMYQ3AuullIH9HlbaNNp07IuNGgYqzccff8xTWMFX+bHHHuOxWK0E20ivk1MxiwHnE19ssGTJEq19+/Y85h70UmJhDRnU3l5XQEWPrro2OlzIw8+LF6NlzI6AORh6f+XXmmq1UvQkDxw4kMdiYPaGkxkFbsB12Tm6zUQwxUydDuYICFw6eOWVV+JfWRGMF8/3WhENfbWWM9pyPIU7Jk6caMoHX+1u3brxvd4IuoabNGmSKS9cY5cuXfhe94wfP96SX6oOqAMHDuhFihSJP3cc06JFC743OBYsWGC6tkwPpUqV8qQxpaWGA1hvG74vMHMAtQzaFJdeeinzHpXIryGMZQcNGsRjsVoOrtwwpoRj3YCOF9XQFl8l1Lpep7wEXcPBYn/NmjWmWvjNN9/U7rnnHh5zDrymVa5cmWkX8itF59Of//xnHjODdOIaxDF45jBEh7OnIBG1KNr4Qc1izylQTjHP8tixY+4NAiBw6WLz5s3si4nTIOAr2rRp04RtA7Tl5LaECEaDn6dwx/XXX2+pMT/88EO+1z1B1nB27UwMqXhdvqtnz56mvPAMGzZsyPfaYxQc0zEIftukiRDnMtRK/k/mYjR/2L0YAsf/cU5abYhgnSBbOxjnY1/TRNYn6BHDMIL8xQdjx471NHO7U6dOpq89alm7qSo5ASbcykbFqFnQZkpmBZKIbdu2abNmzeKxGHiGEyZM4DEru3fvZr3DeCYA50eb+amnnmJxIj2kVeDA008/zVbvxAsV4EXbrSQKMIMc3eJyeqin/fv35zHnqBMmIXww8ZKFMKdYvHix6R4hILh3t+BeYB4nBAdgG+NnjRo14v+YwVDNX/7yF/ZcxbPAMVjllIYB0kvaBQ4vUCxXK8CXHcKA3jg71C8zCsW7776rzZ07l//jDMyYRq+dfG44FoJtYE6CdpbsnAfgGuXZ806B3SPuR+SFfLB01+jRo1ncjocffpj1/srnf/LJJzVDBecxIl2kXeAALCdkVQUvet++fUzo7BZORPpHH32Ux2KgID344IPagQMH+D/OUNVKkNNqJdbZlt0JoqZDbeR2VVFoCaqBMu51zJgxzJDcjueff16bOXMmj8XOjeeNzh8iBIwXFAowHm7Tpg1rbMqhe/fuPIWZCxcu6DVq1LB0uhjqpitD5PXr15vOhzyuvPJKT8bMQXWaGB8aS8eQ0Xble52B52O0uUz5YPvWW29N2CllfGhM50R6dG9/++23PEX6oE6TGKEJHMBYW82aNS2FbdSoUTyFGVinqGkRMCvBDVWrVrX0VhoqKt/rnCAE7vDhw5Z7grGy25c3cOBAUx64P1jTYOF8O7Zu3cr2i3MjPc6LD1IYkMDFCEWlFMCKAj4SsXqm8eL5v5r2xBNP2LbP4FAI+1Qwf2zLli08lhqoosa98lhMjXrllVd4LFygzsltJ1wLOkvcjOfAfR3GgmRwf+jNxVicCtR3uCaEGivOjfSYd0iOXUMGUhc2q1atMo1B4WuLL68hdDxFNrDzw5ws8WVGwHbZsmUdfy0xbSh//vzx40UesLJwg98aDmrsVVddZalt3dhOfvnll8wiR34eyO+uu+6yVSVR45UrV86UHgE1ZJhQDRcjbZYmqcC4Uc+ePVlnCC5B/GIsSp5tAOCeTXUhh/ToZHDq697O0SymE8HG0ym4BlyLitPeRYwlYvxLIO65bdu2bNsJsA/F1Bu5lgS4D9yPCmYjYEF8OT2mRMGu1Pjo8X/Sj7A0MQQu4y1NoEmgU88QuGhZmqRiypQp7EthFLb4L77EdkFOJ4JdukQBx/o5Xg7i+GTXmyjI1yCuyS5dsiCOF3ng1y6dCHJ6zLCHRU/YUA0XI9Q2nMpDDz3E/I8Y1xH/2uNLbBcA9svYpUsUcKyf4+UgSHa9iYJ8DeKa7NIlCzIiP7t0Igjg8RoD7jS4nXPkqMABCB28DqPgQOiI9EDCFg1yXOAALB9ETWeoQPzf9JHXBJuELTpEQuAAajrYOaJQqEKHYQQUGHRrI8AkDEMGdoIDSwqRzi5gKo1QwwDOdeutt9qmVYOdSRgaz3Zp5aBazeCc6CixSysHOzd3AJNr0REi0mEKlNp5JJ4N7CyxUAoJW0QwCl+k2LFjh6XrXDT8e/furRsFjaX7/vvv2YC22CcHuIgz2i4sncqpU6fYhEv1GEwlSoWXYYFE50vmQevixYt6nz59LMfgmWCIRJ7CM2vWLOYGUH1eGHZ59dVXeaqchzpNYkRO4ABu5JZbbokXIDlUrFhR37BhA0sHkyS7cS0EzJxO1Bs3ZMgQU1oUUKPG4XsT40Xgnn32WVN6nAt+KBOBDwp6EuVjEHCP1atXZx8agGfUvn37+D6RDvmXKFFCX716NUsXFUjgYkRS4ACEBTWaKERygUIwVCU2iTMrK4uZi9kJXbNmzfQff/yR55gNCi1qBTV9KjMntwKH6ytatKjl2hIJw9GjR/Ubb7zRlFYETCbFAD5q7tmzZzMbSLt7hn3lvn37eI7RgQQuRmQFTgCD20SFq3jx4sxLFW68UaNGlv0IMIDes2cPzy0b1bMYhPjmm2/me+1xK3CDBg0ypcU5WrZsyfeaQd4VKlSwvU8cc/bsWSaomMUu8hL7xUcIqjSMmqMICVyMyAscQI109913WwqaKJxQtf71r3+xgin2iYD0MNpFW0cGqlvp0qUtBXzJkiU8hRU3Ard//36LORnO9dlnn/EU2cD5DwyJ5XsToWvXruyDIdRHuzRVqlTRN27cyHOLJiRwMTJC4ATz589ntZoqJKIQwv+iWsgRRHq06+QOh8mTJ5vSIZ9rrrmGdVrY4Ubg7r//ftN1Yhv/yeBD0rp1a1N+crj99tv1zp07s+tKdM/9+/fXz507x3OMLiRwMTJK4ABeWK9evViBE4VOBDWuFlKEypUrx9tq/1McoIowffp0tl/FqcDt3LnTcm58CFDrCWCwbOf8NtU9iP1o061bt47nFn1I4GJEZhzOKTB8xbQSLEKPAV1gFEL2K8yYRNy4P/YrYxR6Zujbo0cP7dSpU8ydt2z+ZBRwNv3n/Pnz/B/3wKEt8pHBeJhYzgv+Rlq0aMFc26nXmOgeRH5wsGuoz2xM0I3hNRENMk7gBHBM9M477zDreQyCA1Xw7BD7Zs+ezRYROXnyJHMxIBdw+D3BALoXli9fzuarifNAUOCJC4PfcH1QrVo1beHChWyfk+sUgoaZALDGwWL3RnuW/UdkIEYByxVgBjc8BuOWjELKflOFZOmgAmLumUwqlRKeeO1UVFwXBunl/1IFkQdUYHSqePVXGRVIpYyRsTWcCmY0o3ZBDQD1TcypEzWEHcb9s19Ru8nAsxhsPN0A9fSbb76x1Fzw049Z107BNf/xj3/Uli1bxrxO9+vXz5O/SiKCxOQu9wH/KfDdLw8kqzWPk3DFFVcwx0Vw/IMBdrs0nTp1YtYjdvtSBbmWxbkwdmcIGb+L3APVcDFyrcDJHDx4kA0BNG/ePO7awY3wQShwHI6RjxNx7EumnqpBzgNCPGzYMObkJzdDAhcj16iUycCSUFAPodqdOHGCLXDRrVs3i0doeVvGeE5MxYSqKKuLIo59SGOHmqdRi7Els+DSHeoiFjcZOXKkVr9+fZ6CyM3kmE+TqHDu3Dm2Ko5RwzAf/du3b9cOHTqknTlzhqfwBrwfYwgDKwhBmBo0aMB+y5Qpw1PkLcinSYw8L3CJwDjc4cOH4wEFBXPQ4I8f3qLx2LDsFQLW44YglStXLh48LdaXiyGBi0ECR4QCCVyMPNGGI4ioQAJHECFCAkcQIUICRxAhQgJHECFCAkfkebDmA3oesWqsuoZF0JDAEXmaZ599lk2ZQjf/0KFD2bLL6vJmQUICR+RZsPQz1h+EU969e/dqBw8e1Hr37q29+uqraVs/kASOyLPAc0Dp0qW1BQsWsFoONrfTpk1jNrYzZszgqYKFBI7Is2BmPwQNpnkyderUYVYk6YAEjsizoL0Gg3XM2hBg3QrMKsG+dEC2lB7ArG44ACKcgylREyZMiJQtJdptmMGBxWJg51moUCFt4sSJrNdy5cqVWpMmTXhKMxm7AmomYjxk0wRSCu6CIXD8SUYDrFNhqJDx64NPmqVLl/K99viZgEo1nAfWrl2bNh0/twIPa3PmzInsbAHUdph2VbNmzYQTkQU0PYeIPDQ9JwZ1mhBEiJDAEUSIkMARRIhQG44IhSDbcKtWrWLOntIJfNVg/YmiRYvyf7KhYQEi8gTpl7Jw4cIsr3SHKVOm8DOaoWEBIvIEWcMJ9/VDhgxhv0Fz9OhR7bXXXtOMj4Q2YMAA/m82VMMRkSfIGg7rmCOvdAesqmsH1XBE5AmyhoPPUKztl04KFCiglSxZksfM0MA3EXlo4DsGCRwRCkEK3CeffKLt2LGDx9IDeinvvfdeZtCsQm04IvIE2YYrWrQoyyvdYdq0afyMZqgNR0SedPRSIr90gF5KTCeiXkoiYwmyhqtevXq8FkpnmD9/Pj+jGarhiMgTZA2HHsp0TwCG2wX4OLGDOk2IyEO9lDFI4IhQCFLgsGrsrl27eCw9oJeyTZs2bGFNFWrDEZEnyDZc8eLFWV7pDjNmzOBnNENtOCLypKOXkmwpCSIBQdZwcPSDvNIdDKHjZzRDNRwReYKs4ZBHVlYWj6UHWJjUrl2bx8xQpwkReaiXMga5WCCIECGBI4gQIYEjiBAhgSOIECGBI4gQIYEjiBAhgSOIECGBI4gQIYEjiBAhSxMiFISlCRawzw2WJljvjky7iMgC6/sHHniAxzIfLNp48uRJtlyxG0jgiFDA6qJYN/vixYv8n8ymcuXKWq1atXjMOSRwBBEi1GlCECFCAkcQIUICRxAhQgJHECFCAkcQIUICRxChoWn/D5UFgsAFeO01AAAAAElFTkSuQmCC;" parent="1" vertex="1">
          <mxGeometry x="589.81" y="575" width="108.38" height="100" as="geometry" />
        </mxCell>
        <mxCell id="TG1zTrysk28nqlkXCDqp-4" value="&lt;font style=&quot;font-size: 13px;&quot;&gt;Auction Platform&lt;/font&gt;" style="text;html=1;strokeColor=none;fillColor=none;align=center;verticalAlign=middle;whiteSpace=wrap;rounded=0;fontSize=13;fontStyle=1" parent="1" vertex="1">
          <mxGeometry x="556" y="680" width="160" height="30" as="geometry" />
        </mxCell>
        <mxCell id="TG1zTrysk28nqlkXCDqp-6" value="" style="endArrow=classic;startArrow=classic;html=1;rounded=0;fontSize=18;strokeWidth=5;fillColor=#f5f5f5;strokeColor=#666666;exitX=0.5;exitY=1;exitDx=0;exitDy=0;" parent="1" source="TG1zTrysk28nqlkXCDqp-13" edge="1">
          <mxGeometry width="50" height="50" relative="1" as="geometry">
            <mxPoint x="992.5699999999999" y="442" as="sourcePoint" />
            <mxPoint x="922.5699999999999" y="532" as="targetPoint" />
          </mxGeometry>
        </mxCell>
        <mxCell id="TG1zTrysk28nqlkXCDqp-7" value="" style="endArrow=classic;startArrow=classic;html=1;rounded=0;fontSize=18;strokeWidth=5;fillColor=#f5f5f5;strokeColor=#666666;exitX=0.5;exitY=1;exitDx=0;exitDy=0;" parent="1" source="TG1zTrysk28nqlkXCDqp-15" edge="1">
          <mxGeometry width="50" height="50" relative="1" as="geometry">
            <mxPoint x="672.5699999999999" y="432" as="sourcePoint" />
            <mxPoint x="782.5699999999999" y="532" as="targetPoint" />
          </mxGeometry>
        </mxCell>
        <mxCell id="TG1zTrysk28nqlkXCDqp-11" style="edgeStyle=orthogonalEdgeStyle;rounded=0;orthogonalLoop=1;jettySize=auto;html=1;exitX=0.5;exitY=1;exitDx=0;exitDy=0;strokeWidth=5;fontSize=18;" parent="1" source="TG1zTrysk28nqlkXCDqp-4" target="TG1zTrysk28nqlkXCDqp-4" edge="1">
          <mxGeometry relative="1" as="geometry" />
        </mxCell>
        <mxCell id="TG1zTrysk28nqlkXCDqp-12" value="" style="endArrow=none;dashed=1;html=1;rounded=0;strokeWidth=2;fontSize=18;entryX=1;entryY=0.5;entryDx=0;entryDy=0;" parent="1" edge="1">
          <mxGeometry width="50" height="50" relative="1" as="geometry">
            <mxPoint x="712.5699999999999" y="630" as="sourcePoint" />
            <mxPoint x="1143.57" y="630" as="targetPoint" />
          </mxGeometry>
        </mxCell>
        <mxCell id="TG1zTrysk28nqlkXCDqp-13" value="&lt;b&gt;&lt;font style=&quot;font-size: 18px;&quot;&gt;Buyer&lt;/font&gt;&lt;/b&gt;" style="text;html=1;strokeColor=none;fillColor=none;align=center;verticalAlign=middle;whiteSpace=wrap;rounded=0;" parent="1" vertex="1">
          <mxGeometry x="948.3" y="394.16999999999996" width="110" height="30" as="geometry" />
        </mxCell>
        <mxCell id="TG1zTrysk28nqlkXCDqp-15" value="&lt;b&gt;&lt;font style=&quot;font-size: 18px;&quot;&gt;Seller&lt;/font&gt;&lt;/b&gt;" style="text;html=1;strokeColor=none;fillColor=none;align=center;verticalAlign=middle;whiteSpace=wrap;rounded=0;" parent="1" vertex="1">
          <mxGeometry x="632.73" y="395.16999999999996" width="110" height="30" as="geometry" />
        </mxCell>
        <mxCell id="TG1zTrysk28nqlkXCDqp-16" value="&lt;span style=&quot;font-size: 20px;&quot;&gt;&lt;font style=&quot;font-size: 20px;&quot;&gt;Front end&lt;/font&gt;&lt;/span&gt;" style="text;html=1;strokeColor=none;fillColor=none;align=center;verticalAlign=middle;whiteSpace=wrap;rounded=0;strokeWidth=4;fontSize=20;fontStyle=0" parent="1" vertex="1">
          <mxGeometry x="792.5699999999999" y="552" width="260" height="18" as="geometry" />
        </mxCell>
        <mxCell id="TG1zTrysk28nqlkXCDqp-17" value="" style="endArrow=none;html=1;rounded=0;strokeWidth=1;fontSize=13;exitX=0.25;exitY=1;exitDx=0;exitDy=0;entryX=0.25;entryY=0;entryDx=0;entryDy=0;strokeColor=default;" parent="1" source="TG1zTrysk28nqlkXCDqp-10" target="TG1zTrysk28nqlkXCDqp-10" edge="1">
          <mxGeometry width="50" height="50" relative="1" as="geometry">
            <mxPoint x="822.5699999999999" y="562" as="sourcePoint" />
            <mxPoint x="872.5699999999999" y="512" as="targetPoint" />
          </mxGeometry>
        </mxCell>
        <mxCell id="TG1zTrysk28nqlkXCDqp-19" value="&lt;span style=&quot;font-size: 25px;&quot;&gt;&lt;font style=&quot;font-size: 25px;&quot;&gt;HTML, CSS, React JS&lt;/font&gt;&lt;/span&gt;" style="text;html=1;strokeColor=none;fillColor=none;align=center;verticalAlign=middle;whiteSpace=wrap;rounded=0;strokeWidth=4;fontSize=25;fontStyle=0" parent="1" vertex="1">
          <mxGeometry x="792.5699999999999" y="586" width="260" height="18" as="geometry" />
        </mxCell>
        <mxCell id="TG1zTrysk28nqlkXCDqp-20" value="&lt;span style=&quot;font-size: 20px;&quot;&gt;&lt;font style=&quot;font-size: 20px;&quot;&gt;Back end&lt;/font&gt;&lt;/span&gt;" style="text;html=1;strokeColor=none;fillColor=none;align=center;verticalAlign=middle;whiteSpace=wrap;rounded=0;strokeWidth=4;fontSize=20;fontStyle=0" parent="1" vertex="1">
          <mxGeometry x="792.5699999999999" y="642" width="260" height="18" as="geometry" />
        </mxCell>
        <mxCell id="TG1zTrysk28nqlkXCDqp-21" value="&lt;span style=&quot;font-size: 25px;&quot;&gt;&lt;font style=&quot;font-size: 25px;&quot;&gt;Centralized Database&lt;/font&gt;&lt;/span&gt;" style="text;html=1;strokeColor=none;fillColor=none;align=center;verticalAlign=middle;whiteSpace=wrap;rounded=0;strokeWidth=4;fontSize=25;fontStyle=0" parent="1" vertex="1">
          <mxGeometry x="792.5699999999999" y="675" width="260" height="18" as="geometry" />
        </mxCell>
        <mxCell id="iFU5tl9R6KZrdiB1V4sH-2" value="" style="sketch=0;shadow=0;dashed=0;html=1;strokeColor=none;fillColor=#505050;labelPosition=center;verticalLabelPosition=bottom;verticalAlign=top;outlineConnect=0;align=center;shape=mxgraph.office.databases.application_store;" vertex="1" parent="1">
          <mxGeometry x="750.73" y="652" width="40" height="43" as="geometry" />
        </mxCell>
        <mxCell id="iFU5tl9R6KZrdiB1V4sH-5" value="Bid" style="text;html=1;strokeColor=none;fillColor=none;align=center;verticalAlign=middle;whiteSpace=wrap;rounded=0;fontSize=15;" vertex="1" parent="1">
          <mxGeometry x="958.3" y="470" width="60" height="30" as="geometry" />
        </mxCell>
        <mxCell id="iFU5tl9R6KZrdiB1V4sH-6" value="Data &amp;amp; Currencies" style="text;html=1;strokeColor=none;fillColor=none;align=center;verticalAlign=middle;whiteSpace=wrap;rounded=0;fontSize=15;" vertex="1" parent="1">
          <mxGeometry x="888.3" y="450" width="60" height="30" as="geometry" />
        </mxCell>
        <mxCell id="iFU5tl9R6KZrdiB1V4sH-7" value="Create Auction" style="text;html=1;strokeColor=none;fillColor=none;align=center;verticalAlign=middle;whiteSpace=wrap;rounded=0;fontSize=15;" vertex="1" parent="1">
          <mxGeometry x="670" y="480" width="60" height="30" as="geometry" />
        </mxCell>
        <mxCell id="iFU5tl9R6KZrdiB1V4sH-9" value="Data &amp;amp; Currencies" style="text;html=1;strokeColor=none;fillColor=none;align=center;verticalAlign=middle;whiteSpace=wrap;rounded=0;fontSize=15;" vertex="1" parent="1">
          <mxGeometry x="750.73" y="450" width="60" height="30" as="geometry" />
        </mxCell>
      </root>
    </mxGraphModel>
  </diagram>
</mxfile>
